<svg width="60" height="60" viewBox="0 0 60 60" fill="none" xmlns="http://www.w3.org/2000/svg">
<mask id="mask0_1_3070" style="mask-type:luminance" maskUnits="userSpaceOnUse" x="0" y="0" width="60" height="60">
<path d="M60 0H0V60H60V0Z" fill="white"/>
</mask>
<g mask="url(#mask0_1_3070)">
<path d="M35.0004 22.4966L57.0252 26.8718C57.8681 27.039 58.6264 27.4949 59.1694 28.161C59.7124 28.8271 60.0061 29.6616 60 30.521V56.021C60.0006 56.5136 59.9041 57.0015 59.7158 57.4568C59.5276 57.912 59.2514 58.3257 58.9031 58.674C58.5547 59.0224 58.1411 59.2986 57.6858 59.4868C57.2306 59.675 56.7426 59.7716 56.25 59.771H33.75C33.9147 59.7726 34.078 59.7413 34.2304 59.6791C34.3828 59.6168 34.5213 59.5248 34.6377 59.4083C34.7542 59.2919 34.8462 59.1534 34.9085 59.001C34.9708 58.8485 35.002 58.6852 35.0004 58.5206V57.2714H56.25C56.5813 57.2704 56.8988 57.1384 57.1331 56.9041C57.3674 56.6698 57.4994 56.3523 57.5004 56.021V30.521C57.5014 30.235 57.4048 29.9572 57.2265 29.7336C57.0482 29.5099 56.799 29.3538 56.52 29.291L35.0004 25.0466V22.4966Z" fill="#2D4572"/>
<path d="M48.7485 34.7692C49.0733 34.7792 49.3814 34.9153 49.6075 35.1486C49.8337 35.3819 49.9602 35.694 49.9602 36.019C49.9602 36.3439 49.8337 36.656 49.6075 36.8893C49.3814 37.1226 49.0733 37.2587 48.7485 37.2688H43.7481C43.5807 37.2739 43.414 37.2455 43.2578 37.185C43.1017 37.1245 42.9593 37.0333 42.839 36.9167C42.7188 36.8001 42.6232 36.6606 42.5579 36.5064C42.4926 36.3522 42.459 36.1864 42.459 36.019C42.459 35.8515 42.4926 35.6857 42.5579 35.5315C42.6232 35.3773 42.7188 35.2378 42.839 35.1212C42.9593 35.0046 43.1017 34.9134 43.2578 34.8529C43.414 34.7925 43.5807 34.764 43.7481 34.7692H48.7485Z" fill="#F26327"/>
<path d="M48.7485 42.2692C49.0733 42.2792 49.3814 42.4153 49.6075 42.6486C49.8337 42.8819 49.9602 43.194 49.9602 43.519C49.9602 43.8439 49.8337 44.156 49.6075 44.3893C49.3814 44.6226 49.0733 44.7587 48.7485 44.7688H43.7481C43.5807 44.7739 43.414 44.7455 43.2578 44.685C43.1017 44.6245 42.9593 44.5333 42.839 44.4167C42.7188 44.3001 42.6232 44.1606 42.5579 44.0064C42.4926 43.8522 42.459 43.6864 42.459 43.519C42.459 43.3515 42.4926 43.1857 42.5579 43.0315C42.6232 42.8773 42.7188 42.7378 42.839 42.6212C42.9593 42.5046 43.1017 42.4134 43.2578 42.3529C43.414 42.2925 43.5807 42.264 43.7481 42.2692H48.7485Z" fill="#F26327"/>
<path d="M48.7485 49.7692C49.0733 49.7792 49.3814 49.9153 49.6075 50.1486C49.8337 50.3819 49.9602 50.694 49.9602 51.019C49.9602 51.3439 49.8337 51.656 49.6075 51.8893C49.3814 52.1226 49.0733 52.2587 48.7485 52.2688H43.7481C43.5807 52.2739 43.414 52.2455 43.2578 52.185C43.1017 52.1245 42.9593 52.0333 42.839 51.9167C42.7188 51.8001 42.6232 51.6606 42.5579 51.5064C42.4926 51.3522 42.459 51.1864 42.459 51.019C42.459 50.8515 42.4926 50.6857 42.5579 50.5315C42.6232 50.3773 42.7188 50.2378 42.839 50.1212C42.9593 50.0046 43.1017 49.9134 43.2578 49.8529C43.414 49.7925 43.5807 49.764 43.7481 49.7692H48.7485Z" fill="#F26327"/>
<path d="M35.0041 58.5179C35.0093 58.6853 34.9808 58.852 34.9203 59.0082C34.8599 59.1643 34.7686 59.3067 34.6521 59.427C34.5355 59.5472 34.396 59.6428 34.2417 59.7081C34.0875 59.7734 33.9218 59.807 33.7543 59.807C33.5868 59.807 33.4211 59.7734 33.2669 59.7081C33.1126 59.6428 32.9731 59.5472 32.8566 59.427C32.74 59.3067 32.6488 59.1643 32.5883 59.0082C32.5278 58.852 32.4993 58.6853 32.5045 58.5179V23.5187C32.5077 23.3339 32.5493 23.1518 32.6268 22.9841C32.7043 22.8163 32.8159 22.6665 32.9545 22.5443C33.1021 22.4311 33.2719 22.3503 33.4528 22.3073C33.6338 22.2643 33.8218 22.26 34.0045 22.2947L35.0041 22.4951V58.5179Z" fill="#2D4572"/>
<path d="M32.4953 57.2686V58.519C32.4939 58.6835 32.5252 58.8467 32.5876 58.999C32.6499 59.1513 32.742 59.2896 32.8584 59.4059C32.9748 59.5222 33.1132 59.6142 33.2656 59.6764C33.4179 59.7385 33.5811 59.7698 33.7457 59.7682H23.7461C23.9107 59.7698 24.0741 59.7385 24.2265 59.6762C24.3789 59.614 24.5174 59.5219 24.6338 59.4055C24.7503 59.2891 24.8423 59.1506 24.9046 58.9982C24.9668 58.8457 24.9981 58.6824 24.9965 58.5178V57.2686H32.4953Z" fill="#2D4572"/>
<path d="M26.2472 12.2686C26.572 12.2786 26.8801 12.4147 27.1062 12.648C27.3324 12.8813 27.4589 13.1934 27.4589 13.5184C27.4589 13.8433 27.3324 14.1554 27.1062 14.3887C26.8801 14.622 26.572 14.7581 26.2472 14.7682H21.2468C20.9221 14.7581 20.614 14.622 20.3878 14.3887C20.1616 14.1554 20.0352 13.8433 20.0352 13.5184C20.0352 13.1934 20.1616 12.8813 20.3878 12.648C20.614 12.4147 20.9221 12.2786 21.2468 12.2686H26.2472Z" fill="#F26327"/>
<path d="M27.4976 21.0178C27.4992 21.1825 27.468 21.3458 27.4057 21.4982C27.3434 21.6506 27.2514 21.7891 27.135 21.9056C27.0185 22.022 26.8801 22.114 26.7276 22.1763C26.5752 22.2386 26.4119 22.2698 26.2472 22.2682H21.2468C20.9221 22.2581 20.614 22.1221 20.3878 21.8888C20.1616 21.6555 20.0352 21.3433 20.0352 21.0184C20.0352 20.6935 20.1616 20.3813 20.3878 20.148C20.614 19.9148 20.9221 19.7787 21.2468 19.7686H26.2472C26.4118 19.767 26.575 19.7982 26.7273 19.8604C26.8797 19.9226 27.0181 20.0145 27.1345 20.1309C27.2509 20.2472 27.343 20.3855 27.4054 20.5378C27.4677 20.6901 27.4991 20.8533 27.4976 21.0178Z" fill="#F26327"/>
<path d="M26.2472 27.2686C26.572 27.2786 26.8801 27.4147 27.1062 27.648C27.3324 27.8813 27.4589 28.1934 27.4589 28.5184C27.4589 28.8433 27.3324 29.1554 27.1062 29.3887C26.8801 29.622 26.572 29.7581 26.2472 29.7682H21.2468C20.9221 29.7581 20.614 29.622 20.3878 29.3887C20.1616 29.1554 20.0352 28.8433 20.0352 28.5184C20.0352 28.1934 20.1616 27.8813 20.3878 27.648C20.614 27.4147 20.9221 27.2786 21.2468 27.2686H26.2472Z" fill="#F26327"/>
<path d="M26.2472 34.7686C26.572 34.7786 26.8801 34.9147 27.1062 35.148C27.3324 35.3813 27.4589 35.6934 27.4589 36.0184C27.4589 36.3433 27.3324 36.6554 27.1062 36.8887C26.8801 37.122 26.572 37.2581 26.2472 37.2682H21.2468C20.9221 37.2581 20.614 37.122 20.3878 36.8887C20.1616 36.6554 20.0352 36.3433 20.0352 36.0184C20.0352 35.6934 20.1616 35.3813 20.3878 35.148C20.614 34.9147 20.9221 34.7786 21.2468 34.7686H26.2472Z" fill="#F26327"/>
<path d="M15.0016 36.0184C15.0032 36.183 14.972 36.3463 14.9097 36.4988C14.8474 36.6512 14.7554 36.7897 14.639 36.9061C14.5225 37.0225 14.384 37.1146 14.2316 37.1768C14.0792 37.2391 13.9159 37.2704 13.7512 37.2688H8.75202C8.58464 37.2739 8.41792 37.2455 8.26175 37.185C8.10559 37.1245 7.96316 37.0333 7.84293 36.9167C7.72269 36.8001 7.62709 36.6606 7.56181 36.5064C7.49653 36.3522 7.46289 36.1864 7.46289 36.019C7.46289 35.8515 7.49653 35.6857 7.56181 35.5315C7.62709 35.3773 7.72269 35.2378 7.84293 35.1212C7.96316 35.0046 8.10559 34.9134 8.26175 34.8529C8.41792 34.7925 8.58464 34.764 8.75202 34.7692H13.7524C13.9169 34.7677 14.08 34.799 14.2322 34.8613C14.3844 34.9236 14.5227 35.0155 14.639 35.1318C14.7552 35.2481 14.8472 35.3864 14.9095 35.5386C14.9717 35.6908 15.0031 35.8539 15.0016 36.0184Z" fill="#F26327"/>
<path d="M13.748 12.2692C13.9154 12.264 14.0821 12.2925 14.2382 12.3529C14.3944 12.4134 14.5368 12.5046 14.6571 12.6212C14.7773 12.7378 14.8729 12.8773 14.9382 13.0315C15.0035 13.1857 15.0371 13.3515 15.0371 13.519C15.0371 13.6864 15.0035 13.8522 14.9382 14.0064C14.8729 14.1606 14.7773 14.3001 14.6571 14.4167C14.5368 14.5333 14.3944 14.6245 14.2382 14.685C14.0821 14.7455 13.9154 14.7739 13.748 14.7688H8.74878C8.42401 14.7587 8.11592 14.6226 7.88975 14.3893C7.66359 14.156 7.53711 13.8439 7.53711 13.519C7.53711 13.194 7.66359 12.8819 7.88975 12.6486C8.11592 12.4153 8.42401 12.2792 8.74878 12.2692H13.748Z" fill="#F26327"/>
<path d="M13.748 19.7692C13.9154 19.764 14.0821 19.7925 14.2382 19.8529C14.3944 19.9134 14.5368 20.0046 14.6571 20.1212C14.7773 20.2378 14.8729 20.3773 14.9382 20.5315C15.0035 20.6857 15.0371 20.8515 15.0371 21.019C15.0371 21.1864 15.0035 21.3522 14.9382 21.5064C14.8729 21.6606 14.7773 21.8001 14.6571 21.9167C14.5368 22.0333 14.3944 22.1245 14.2382 22.185C14.0821 22.2455 13.9154 22.2739 13.748 22.2688H8.74878C8.42401 22.2587 8.11592 22.1226 7.88975 21.8893C7.66359 21.656 7.53711 21.3439 7.53711 21.019C7.53711 20.694 7.66359 20.3819 7.88975 20.1486C8.11592 19.9153 8.42401 19.7792 8.74878 19.7692H13.748Z" fill="#F26327"/>
<path d="M13.748 27.2692C13.9154 27.264 14.0821 27.2925 14.2382 27.3529C14.3944 27.4134 14.5368 27.5046 14.6571 27.6212C14.7773 27.7378 14.8729 27.8773 14.9382 28.0315C15.0035 28.1857 15.0371 28.3515 15.0371 28.519C15.0371 28.6864 15.0035 28.8522 14.9382 29.0064C14.8729 29.1606 14.7773 29.3001 14.6571 29.4167C14.5368 29.5333 14.3944 29.6245 14.2382 29.685C14.0821 29.7455 13.9154 29.7739 13.748 29.7688H8.74878C8.42401 29.7587 8.11592 29.6226 7.88975 29.3893C7.66359 29.156 7.53711 28.8439 7.53711 28.519C7.53711 28.194 7.66359 27.8819 7.88975 27.6486C8.11592 27.4153 8.42401 27.2792 8.74878 27.2692H13.748Z" fill="#F26327"/>
<path d="M22.5043 46.0186C22.5034 45.6872 22.3713 45.3697 22.137 45.1354C21.9027 44.9012 21.5852 44.7691 21.2539 44.7682H13.7539C13.5893 44.7666 13.4259 44.7978 13.2735 44.8601C13.1211 44.9223 12.9826 45.0144 12.8662 45.1308C12.7497 45.2472 12.6577 45.3857 12.5954 45.5382C12.5332 45.6906 12.5019 45.8539 12.5035 46.0186V57.2686H10.0039V46.0186C10.0033 45.5259 10.0998 45.038 10.2881 44.5828C10.4763 44.1275 10.7525 43.7138 11.1008 43.3655C11.4492 43.0172 11.8628 42.741 12.3181 42.5527C12.7734 42.3645 13.2613 42.2679 13.7539 42.2686H21.2539C21.7465 42.2679 22.2345 42.3645 22.6897 42.5527C23.145 42.741 23.5586 43.0172 23.907 43.3655C24.2553 43.7138 24.5315 44.1275 24.7197 44.5828C24.908 45.038 25.0045 45.5259 25.0039 46.0186V57.2686H22.5043V46.0186Z" fill="#2D4572"/>
<path d="M12.5048 57.2686H25.004V58.519C25.0054 58.6834 24.9741 58.8465 24.9118 58.9987C24.8495 59.1509 24.7576 59.2892 24.6413 59.4055C24.525 59.5218 24.3867 59.6137 24.2345 59.676C24.0823 59.7383 23.9192 59.7696 23.7548 59.7682H11.2544C11.0897 59.7698 10.9264 59.7385 10.774 59.6762C10.6215 59.614 10.4831 59.5219 10.3666 59.4055C10.2502 59.2891 10.1582 59.1506 10.0959 58.9982C10.0336 58.8457 10.0024 58.6824 10.004 58.5178V57.2686H12.5048Z" fill="#2D4572"/>
<path d="M4.37529 0.272658L31.8505 4.45226C32.7305 4.59193 33.5316 5.04153 34.1092 5.71994C34.6868 6.39834 35.0029 7.26086 35.0005 8.15186V22.4979L34.0009 22.2975C33.8182 22.2627 33.6302 22.267 33.4492 22.31C33.2683 22.3531 33.0984 22.4338 32.9509 22.5471C32.8121 22.6694 32.7004 22.8194 32.623 22.9874C32.5455 23.1554 32.5039 23.3377 32.5009 23.5227V8.14706C32.5021 7.84811 32.3972 7.55843 32.205 7.32949C32.0127 7.10055 31.7455 6.94719 31.4509 6.89666L3.97569 2.74706C3.90277 2.72644 3.82696 2.71792 3.75129 2.72186C3.45637 2.71828 3.1708 2.82531 2.95089 3.02186C2.80865 3.13572 2.69421 3.28047 2.61624 3.44514C2.53827 3.60981 2.49883 3.79007 2.50089 3.97226V56.0223C2.50184 56.3536 2.63388 56.6711 2.86817 56.9054C3.10246 57.1397 3.41995 57.2717 3.75129 57.2727H9.99969V58.5231C9.99825 58.6876 10.0296 58.8508 10.092 59.0031C10.1543 59.1554 10.2464 59.2937 10.3628 59.41C10.4792 59.5263 10.6176 59.6183 10.77 59.6805C10.9223 59.7426 11.0855 59.7739 11.2501 59.7723H3.75009C3.25745 59.7729 2.76953 59.6763 2.31428 59.4881C1.85902 59.2999 1.44537 59.0237 1.09703 58.6753C0.748684 58.327 0.472485 57.9133 0.284254 57.4581C0.0960224 57.0028 -0.000543024 56.5149 8.8762e-05 56.0223V3.97226C-0.00368162 3.42926 0.112709 2.89216 0.340918 2.39943C0.569128 1.90671 0.903506 1.47056 1.32009 1.12226C1.73645 0.766204 2.22572 0.505636 2.75353 0.35886C3.28134 0.212085 3.83489 0.182661 4.37529 0.272658Z" fill="#2D4572"/>
</g>
</svg>
