<svg width="62" height="62" viewBox="0 0 62 62" fill="none" xmlns="http://www.w3.org/2000/svg">
<g id="custom">
<g id="Group 76">
<g id="Group 75">
<path id="Path 236" d="M45.9629 24.9068C44.6835 24.9068 43.4328 24.4868 42.369 23.7C41.3053 22.9132 40.4761 21.7949 39.9865 20.4865C39.4969 19.1781 39.3688 17.7384 39.6184 16.3494C39.868 14.9604 40.4841 13.6846 41.3888 12.6832C42.2935 11.6818 43.4461 10.9998 44.7009 10.7235C45.9557 10.4472 47.2563 10.589 48.4383 11.131C49.6203 11.6729 50.6306 12.5907 51.3414 13.7682C52.0522 14.9458 52.4316 16.3302 52.4316 17.7464C52.4314 19.6453 51.7498 21.4665 50.5367 22.8093C49.3236 24.1521 47.6784 24.9065 45.9629 24.9068ZM45.9629 12.8295C44.7849 12.8295 43.6552 13.3475 42.8223 14.2695C41.9893 15.1915 41.5214 16.442 41.5214 17.7459C41.5214 19.0498 41.9893 20.3003 42.8223 21.2223C43.6552 22.1443 44.7849 22.6623 45.9629 22.6623C47.1408 22.6623 48.2705 22.1443 49.1034 21.2223C49.9364 20.3003 50.4043 19.0498 50.4043 17.7459C50.4043 16.442 49.9364 15.1915 49.1034 14.2695C48.2705 13.3475 47.1408 12.8295 45.9629 12.8295Z" fill="#F26327"/>
</g>
<g id="Group 217">
<g id="Group 64">
<path id="Path 225" d="M27.5167 22.4503H0.965213C0.709412 22.4496 0.464264 22.3368 0.283385 22.1366C0.102506 21.9364 0.000616143 21.665 0 21.3819L0 14.5417C0.00714976 13.0703 0.53839 11.6613 1.47837 10.6208C2.41835 9.58034 3.69119 8.99229 5.02051 8.98438H30.7997C31.0555 8.98506 31.3006 9.09784 31.4815 9.29806C31.6624 9.49828 31.7643 9.76964 31.7649 10.0528C31.748 10.3301 31.6409 10.5912 31.4634 10.7878C31.286 10.9844 31.0502 11.1031 30.7997 11.1221H4.92406C4.13157 11.1266 3.37269 11.4771 2.81231 12.0974C2.25192 12.7177 1.93529 13.5577 1.9312 14.435V20.2032H27.5198C27.7756 20.2039 28.0208 20.3167 28.2017 20.5169C28.3825 20.7171 28.4844 20.9885 28.4851 21.2717C28.4885 21.5665 28.3908 21.8519 28.2117 22.0701C28.0326 22.2884 27.7853 22.4233 27.5198 22.4477L27.5167 22.4503Z" fill="white"/>
</g>
<g id="Group 66">
<path id="Path 227" d="M8.6906 16.7861H6.56669C6.31078 16.7855 6.06553 16.6726 5.88465 16.4722C5.70376 16.2717 5.60197 16.0002 5.60156 15.7169C5.61865 15.4397 5.72582 15.1788 5.90324 14.9824C6.08067 14.786 6.31635 14.6674 6.56669 14.6484H8.6906C8.94667 14.6484 9.19225 14.761 9.37332 14.9615C9.55439 15.1619 9.65612 15.4338 9.65612 15.7173C9.65612 16.0008 9.55439 16.2726 9.37332 16.4731C9.19225 16.6735 8.94667 16.7861 8.6906 16.7861Z" fill="white"/>
</g>
<g id="Group 67">
<path id="Path 228" d="M13.4328 16.7861H11.3089C11.053 16.7855 10.8077 16.6726 10.6268 16.4722C10.446 16.2717 10.3442 16.0002 10.3438 15.7169C10.3608 15.4397 10.468 15.1788 10.6454 14.9824C10.8229 14.786 11.0585 14.6674 11.3089 14.6484H13.4328C13.6889 14.6484 13.9344 14.761 14.1155 14.9615C14.2966 15.1619 14.3983 15.4338 14.3983 15.7173C14.3983 16.0008 14.2966 16.2726 14.1155 16.4731C13.9344 16.6735 13.6889 16.7861 13.4328 16.7861Z" fill="white"/>
</g>
<g id="Group 68">
<path id="Path 229" d="M18.1515 16.7861H16.0276C15.7717 16.7855 15.5265 16.6726 15.3456 16.4722C15.1647 16.2717 15.0629 16.0002 15.0625 15.7169C15.0796 15.4397 15.1868 15.1788 15.3642 14.9824C15.5416 14.786 15.7773 14.6674 16.0276 14.6484H18.1515C18.4076 14.6484 18.6532 14.761 18.8343 14.9615C19.0153 15.1619 19.1171 15.4338 19.1171 15.7173C19.1171 16.0008 19.0153 16.2726 18.8343 16.4731C18.6532 16.6735 18.4076 16.7861 18.1515 16.7861Z" fill="white"/>
</g>
<g id="Group 69">
<path id="Path 230" d="M23.7532 41.7945H9.65692C8.86389 41.79 8.10455 41.439 7.54408 40.818C6.9836 40.1969 6.66733 39.356 6.66406 38.4782V29.1801C6.66815 28.3028 6.98478 27.4628 7.54517 26.8425C8.10555 26.2222 8.86443 25.8717 9.65692 25.8672H23.7532C24.5457 25.8717 25.3046 26.2222 25.865 26.8425C26.4254 27.4628 26.742 28.3028 26.7461 29.1801V38.4782C26.7428 39.356 26.4265 40.1969 25.8661 40.818C25.3056 41.439 24.5463 41.79 23.7532 41.7945ZM23.7532 28.0075H9.65692C9.40112 28.0082 9.15597 28.1209 8.97509 28.3212C8.79422 28.5214 8.69233 28.7927 8.69171 29.0759V38.4782C8.69233 38.7613 8.79422 39.0327 8.97509 39.2329C9.15597 39.4331 9.40112 39.5459 9.65692 39.5466H23.7532C24.009 39.5459 24.2542 39.4331 24.4351 39.2329C24.6159 39.0327 24.7178 38.7613 24.7184 38.4782V29.1801C24.7204 28.8858 24.6222 28.6014 24.4434 28.3836C24.2645 28.1659 24.0181 28.0306 23.7532 28.0049V28.0075Z" fill="white"/>
</g>
<g id="Group 70">
<path id="Path 231" d="M33.9025 35.1611H32.8401C32.5842 35.1605 32.339 35.0476 32.1581 34.8472C31.9772 34.6467 31.8754 34.3752 31.875 34.0919C31.8921 33.8147 31.9993 33.5538 32.1767 33.3574C32.3541 33.161 32.5898 33.0424 32.8401 33.0234H33.9025C34.1582 33.0241 34.4034 33.1369 34.5842 33.3371C34.7651 33.5373 34.867 33.8087 34.8676 34.0919C34.8507 34.3691 34.7436 34.6303 34.5662 34.8268C34.3887 35.0234 34.1529 35.1422 33.9025 35.1611Z" fill="white"/>
</g>
<g id="Group 71">
<path id="Path 232" d="M48.0954 42.208H32.8402C32.5843 42.2073 32.339 42.0944 32.1581 41.894C31.9772 41.6936 31.8754 41.422 31.875 41.1387C31.8921 40.8616 31.9993 40.6007 32.1767 40.4043C32.3542 40.2079 32.5899 40.0892 32.8402 40.0703H48.0954C48.3517 40.0701 48.5977 40.1825 48.7792 40.3828C48.9608 40.5831 49.0631 40.855 49.0637 41.1387C49.0467 41.4166 48.9392 41.6781 48.7611 41.8748C48.583 42.0715 48.3464 42.1899 48.0954 42.208Z" fill="white"/>
</g>
<g id="Group 72">
<path id="Path 233" d="M48.0828 49.2627H7.1449C6.88896 49.262 6.6437 49.1491 6.4628 48.9487C6.2819 48.7483 6.1801 48.4767 6.17969 48.1934C6.19677 47.9163 6.30395 47.6554 6.4814 47.459C6.65884 47.2626 6.89454 47.1439 7.1449 47.125H48.0828C48.3386 47.1257 48.5838 47.2385 48.7647 47.4387C48.9455 47.6389 49.0474 47.9103 49.048 48.1934C49.0311 48.4707 48.924 48.7318 48.7466 48.9284C48.5691 49.125 48.3333 49.2438 48.0828 49.2627Z" fill="white"/>
</g>
<g id="Group 73">
<path id="Path 234" d="M48.0828 56.3252H7.1449C6.88896 56.3245 6.6437 56.2116 6.4628 56.0112C6.2819 55.8108 6.1801 55.5392 6.17969 55.2559C6.19677 54.9788 6.30395 54.7179 6.4814 54.5215C6.65884 54.3251 6.89454 54.2064 7.1449 54.1875H48.0828C48.3386 54.1882 48.5838 54.301 48.7647 54.5012C48.9455 54.7014 49.0474 54.9728 49.048 55.2559C49.0311 55.5332 48.924 55.7943 48.7466 55.9909C48.5691 56.1875 48.3333 56.3063 48.0828 56.3252Z" fill="white"/>
</g>
<g id="Group 74">
<path id="Path 235" d="M46.7376 35.5894H45.193C44.5932 35.58 44.015 35.3405 43.5571 34.9117C43.0992 34.4828 42.79 33.8913 42.6823 33.2382L42.2935 30.5693C42.2935 30.3558 42.1006 30.249 42.0041 30.1388C41.6152 30.0321 41.3282 29.8185 40.9417 29.7083C40.87 29.656 40.786 29.6281 40.7002 29.6281C40.6143 29.6281 40.5304 29.656 40.4587 29.7083L38.5275 31.3114C38.0298 31.6794 37.4337 31.8485 36.8375 31.7907C36.2413 31.733 35.6807 31.4518 35.2484 30.9937L34.0895 29.7109C33.6724 29.2336 33.4161 28.6122 33.3635 27.9506C33.3108 27.2891 33.465 26.6276 33.8002 26.0769L35.2484 23.9392C35.2967 23.8603 35.3224 23.7672 35.3224 23.6719C35.3224 23.5766 35.2967 23.4835 35.2484 23.4046C35.0693 23.022 34.9081 22.6295 34.7654 22.2285C34.669 22.015 34.5725 21.9083 34.3765 21.9083L32.0596 21.4778C31.4629 21.3766 30.9194 21.04 30.5295 20.53C30.1395 20.02 29.9293 19.3711 29.9378 18.703V16.8864C29.9285 16.2172 30.1385 15.5669 30.529 15.056C30.9196 14.545 31.4641 14.208 32.0619 14.1073L34.3789 13.6768C34.5718 13.6768 34.6682 13.4633 34.7677 13.3566C34.8882 12.9457 35.0502 12.5511 35.2507 12.1805C35.299 12.1016 35.3248 12.0085 35.3248 11.9132C35.3248 11.8179 35.299 11.7248 35.2507 11.6459L33.8025 9.50818C33.456 8.96868 33.2863 8.31442 33.3214 7.65361C33.3564 6.99281 33.5942 6.36505 33.9954 5.87417L35.1543 4.59138C35.5857 4.12244 36.156 3.84243 36.7596 3.80317C37.3632 3.76391 37.9592 3.96808 38.4373 4.37786L40.272 5.98093C40.302 6.01935 40.339 6.05019 40.3807 6.07132C40.4224 6.09246 40.4677 6.1034 40.5135 6.1034C40.5594 6.1034 40.6047 6.09246 40.6463 6.07132C40.688 6.05019 40.7251 6.01935 40.755 5.98093C41.1439 5.76741 41.4309 5.66066 41.8175 5.44629C41.9914 5.36214 42.1303 5.20841 42.2063 5.01582L42.5952 2.34691C42.7388 1.69623 43.07 1.11508 43.5388 0.69157C44.0076 0.268055 44.5883 0.0252635 45.193 0H46.7376C47.3374 0.00935564 47.9156 0.248906 48.3735 0.677736C48.8314 1.10656 49.1406 1.69807 49.2483 2.35122L49.6372 5.02012C49.6372 5.23363 49.83 5.34039 49.9265 5.45059C50.3154 5.55735 50.6024 5.77086 50.9889 5.88106C51.0606 5.93338 51.1446 5.96127 51.2304 5.96127C51.3163 5.96127 51.4002 5.93338 51.4719 5.88106L53.4031 4.27799C53.8932 3.88407 54.4954 3.69953 55.0987 3.75839C55.702 3.81724 56.2658 4.11553 56.6861 4.59826L57.845 5.88106C58.2621 6.3584 58.5184 6.97983 58.571 7.64135C58.6237 8.30287 58.4695 8.96434 58.1343 9.51507L56.6861 11.6528C56.6378 11.7317 56.612 11.8248 56.612 11.9201C56.612 12.0154 56.6378 12.1085 56.6861 12.1874C56.8652 12.57 57.0264 12.9625 57.1691 13.3635C57.2655 13.577 57.362 13.6837 57.558 13.6837L59.8749 14.1142C60.4727 14.2149 61.0173 14.5519 61.4078 15.0628C61.7983 15.5738 62.0084 16.2241 61.999 16.8933V18.7099C62.0084 19.3791 61.7983 20.0294 61.4078 20.5403C61.0173 21.0513 60.4727 21.3883 59.8749 21.489L57.558 21.9194C57.3651 21.9194 57.2686 22.133 57.1691 22.2397C57.0726 22.6702 56.8798 22.9879 56.7802 23.4158C56.7326 23.5144 56.7077 23.6246 56.7077 23.7365C56.7077 23.8483 56.7326 23.9585 56.7802 24.0572L58.2284 26.1949C58.5522 26.7435 58.7082 27.3928 58.6735 28.0471C58.6387 28.7013 58.4151 29.3259 58.0355 29.8289L56.5858 30.9937C56.1543 31.4627 55.584 31.7427 54.9804 31.7819C54.3768 31.8212 53.7808 31.617 53.3028 31.2072L51.468 29.6042C51.4381 29.5657 51.401 29.5349 51.3594 29.5138C51.3177 29.4926 51.2724 29.4817 51.2265 29.4817C51.1807 29.4817 51.1354 29.4926 51.0937 29.5138C51.052 29.5349 51.015 29.5657 50.985 29.6042C50.5962 29.8177 50.3092 29.9244 49.9226 30.1388C49.7297 30.2456 49.6333 30.3523 49.6333 30.5693L49.2444 33.2382C49.1368 33.8906 48.8282 34.4816 48.3711 34.9103C47.914 35.3391 47.3367 35.5791 46.7376 35.5894ZM40.6547 27.3597C41.0293 27.3509 41.3983 27.4621 41.7171 27.68C42.0065 27.7867 42.2966 28.0002 42.5859 28.1104C43.0029 28.2796 43.3732 28.5654 43.6608 28.94C43.9484 29.3147 44.1435 29.7653 44.227 30.2481L44.6159 32.9171C44.6239 33.0559 44.6774 33.1868 44.7663 33.2852C44.8552 33.3836 44.9734 33.4428 45.0989 33.4517H46.6435C46.759 33.4645 46.8743 33.4266 46.9647 33.346C47.0551 33.2655 47.1132 33.1488 47.1265 33.0212L47.5154 30.3523C47.5817 29.8621 47.7705 29.4021 48.0605 29.0244C48.3505 28.6466 48.7301 28.3661 49.1565 28.2146C49.4628 28.1165 49.7552 27.9716 50.0253 27.7841C50.4457 27.5731 50.9097 27.4914 51.3686 27.5478C51.8274 27.6041 52.264 27.7964 52.6324 28.1044L54.5636 29.7075C54.6134 29.752 54.671 29.7847 54.7327 29.8035C54.7945 29.8223 54.8591 29.8268 54.9225 29.8168C54.9859 29.8068 55.0467 29.7824 55.1013 29.7453C55.1558 29.7081 55.2028 29.6589 55.2394 29.6007L56.3983 28.3179C56.4441 28.2697 56.4805 28.2116 56.5054 28.1473C56.5303 28.083 56.5432 28.0138 56.5432 27.9439C56.5432 27.8739 56.5303 27.8047 56.5054 27.7404C56.4805 27.6761 56.4441 27.618 56.3983 27.5698L54.9501 25.4321C54.6728 25.0446 54.4988 24.5792 54.4477 24.0882C54.3966 23.5971 54.4704 23.1001 54.6608 22.653C54.7572 22.3327 54.9501 22.0116 55.0497 21.6913C55.1866 21.2193 55.4399 20.7991 55.7812 20.4781C56.1224 20.1571 56.538 19.9481 56.9809 19.8747L59.2978 19.4443C59.5872 19.4443 59.6867 19.124 59.6867 18.9096V17.093C59.6983 16.9652 59.664 16.8375 59.5913 16.7375C59.5185 16.6375 59.4131 16.5731 59.2978 16.5584L56.9809 16.1279C56.538 16.0545 56.1224 15.8455 55.7812 15.5245C55.4399 15.2035 55.1866 14.7833 55.0497 14.3113C54.961 13.9723 54.8302 13.6487 54.6608 13.3497C54.4759 12.8882 54.3967 12.3834 54.4304 11.88C54.464 11.3766 54.6094 10.8901 54.8537 10.4638L56.3019 8.32612C56.4948 8.11261 56.3983 7.79148 56.3019 7.57796L55.143 6.29517C55.0359 6.1821 54.9003 6.10766 54.7541 6.08166C54.7017 6.07451 54.6486 6.08038 54.5985 6.09885C54.5485 6.11732 54.5028 6.14792 54.4648 6.18841L52.63 7.79148C52.2639 8.10456 51.8269 8.30006 51.3671 8.35655C50.9072 8.41304 50.4422 8.32835 50.0229 8.11175C49.7336 8.00499 49.4435 7.79148 49.1542 7.68128C48.7372 7.51211 48.3668 7.2263 48.0793 6.85169C47.7917 6.47707 47.5966 6.02641 47.5131 5.54357L47.1242 2.87467C47.1161 2.7358 47.0627 2.60493 46.9738 2.50654C46.8849 2.40814 46.7666 2.34895 46.6412 2.34003H45.0965C44.9811 2.32719 44.8657 2.36515 44.7753 2.4457C44.685 2.52624 44.6269 2.64291 44.6135 2.77049L44.3265 5.34383C44.2602 5.83408 44.0714 6.29405 43.7814 6.67179C43.4915 7.04953 43.1118 7.33001 42.6854 7.48154C42.3792 7.57964 42.0868 7.72452 41.8167 7.91201C41.3963 8.12309 40.9322 8.20474 40.4734 8.14838C40.0146 8.09201 39.578 7.89972 39.2096 7.59174L37.2753 5.98523C36.9859 5.66496 36.7923 5.87848 36.5994 6.09199L35.4405 7.37478C35.3948 7.42303 35.3583 7.48106 35.3334 7.54537C35.3085 7.60967 35.2957 7.6789 35.2957 7.74886C35.2957 7.81882 35.3085 7.88805 35.3334 7.95235C35.3583 8.01666 35.3948 8.07469 35.4405 8.12294L36.8887 10.2606C37.1309 10.6679 37.2756 11.1365 37.3094 11.6226C37.3431 12.1087 37.2647 12.5964 37.0816 13.0397C36.9852 13.36 36.7923 13.6811 36.6927 14.0014C36.5558 14.4734 36.3025 14.8936 35.9612 15.2146C35.6199 15.5356 35.2044 15.7446 34.7615 15.818L32.4446 16.2485C32.1552 16.2485 32.0557 16.5687 32.0557 16.7831V18.5962C32.0441 18.724 32.0784 18.8517 32.1511 18.9518C32.2239 19.0518 32.3293 19.1161 32.4446 19.1309L34.7615 19.5613C35.2044 19.6347 35.6199 19.8437 35.9612 20.1647C36.3025 20.4857 36.5558 20.9059 36.6927 21.3779C36.7813 21.7169 36.9122 22.0406 37.0816 22.3396C37.2746 22.8044 37.3496 23.3185 37.2986 23.8269C37.2476 24.3353 37.0726 24.8188 36.7923 25.2254L35.3441 27.3632C35.1512 27.5767 35.2476 27.8978 35.3441 28.1113L36.503 29.3941C36.5396 29.4523 36.5866 29.5015 36.6411 29.5386C36.6957 29.5758 36.7565 29.6002 36.8199 29.6102C36.8833 29.6202 36.9479 29.6157 37.0097 29.5968C37.0714 29.578 37.129 29.5454 37.1788 29.5009L39.11 27.8944C39.5751 27.5728 40.107 27.3887 40.6547 27.3597Z" fill="#F26327"/>
</g>
<g id="Group 65">
<path id="Path 226" d="M4.92455 61.9991C4.27572 62.0192 3.63041 61.8867 3.03124 61.6104C2.43208 61.334 1.89269 60.9201 1.4487 60.396C0.981043 59.8773 0.611966 59.2602 0.363238 58.581C0.114511 57.9019 -0.00883005 57.1745 0.000491558 56.4417V21.2794C0.0011077 20.9962 0.102997 20.7248 0.283876 20.5246C0.464756 20.3244 0.709903 20.2116 0.965704 20.2109H27.5172C27.773 20.2116 28.0182 20.3244 28.199 20.5246C28.3799 20.7248 28.4818 20.9962 28.4824 21.2794C28.4653 21.5565 28.3582 21.8174 28.1807 22.0138C28.0033 22.2102 27.7676 22.3289 27.5172 22.3478H1.93169V56.335C1.92827 56.7711 2.00335 57.2036 2.15254 57.6072C2.30173 58.0109 2.52206 58.3776 2.80065 58.686C3.07925 58.9944 3.41054 59.2383 3.7752 59.4034C4.13986 59.5686 4.53057 59.6517 4.92455 59.6479H50.2071C50.9996 59.6433 51.7585 59.2929 52.3189 58.6726C52.8793 58.0522 53.1959 57.2122 53.2 56.335V34.9596C53.2006 34.6765 53.3025 34.4051 53.4834 34.2049C53.6642 34.0047 53.9094 33.8919 54.1652 33.8912C54.4155 33.9101 54.6512 34.0288 54.8287 34.2252C55.0061 34.4216 55.1133 34.6825 55.1304 34.9596V56.335C55.1232 57.8064 54.592 59.2154 53.652 60.2559C52.712 61.2964 51.4392 61.8844 50.1099 61.8923H4.92455V61.9991Z" fill="white"/>
</g>
</g>
</g>
</g>
</svg>
