<svg width="39" height="39" viewBox="0 0 39 39" fill="none" xmlns="http://www.w3.org/2000/svg">
<g id="facebook 2" clip-path="url(#clip0_1_4039)">
<g id="Group">
<path id="Vector" fill-rule="evenodd" clip-rule="evenodd" d="M19.5 39H9.75C7.16417 38.9999 4.68429 37.9726 2.85583 36.1442C1.02738 34.3157 0.000113122 31.8358 0 29.25L0 9.75C0.000113122 7.16417 1.02738 4.68429 2.85583 2.85583C4.68429 1.02738 7.16417 0.000113122 9.75 0L29.25 0C31.8359 0 34.3158 1.02723 36.1443 2.85571C37.9728 4.68419 39 7.16414 39 9.75V29.25C39 31.8359 37.9728 34.3158 36.1443 36.1443C34.3158 37.9728 31.8359 39 29.25 39H25.5938C25.5938 38.1919 25.2727 37.4169 24.7013 36.8455C24.1299 36.2741 23.355 35.9531 22.5469 35.9531C21.7388 35.9531 20.9638 36.2741 20.3924 36.8455C19.821 37.4169 19.5 38.1919 19.5 39Z" fill="#3764B9"/>
<path id="Vector_2" fill-rule="evenodd" clip-rule="evenodd" d="M18.2812 10.9688H29.25C30.656 10.9687 32.0083 10.4286 33.0275 9.46019C34.0468 8.49174 34.6553 7.16884 34.7272 5.76469C34.7992 4.36054 34.3291 2.98238 33.4142 1.91482C32.4992 0.847257 31.2092 0.171833 29.8106 0.0280313C29.6242 0.0176719 29.4395 0 29.25 0H9.75C7.16417 0.000113122 4.68429 1.02738 2.85583 2.85583C1.02738 4.68429 0.000113122 7.16417 0 9.75L0 29.25C0.000113127 24.4015 1.9262 19.7517 5.35458 16.3233C8.78295 12.895 13.4328 10.9689 18.2812 10.9688Z" fill="#507DD2"/>
<path id="Vector_3" fill-rule="evenodd" clip-rule="evenodd" d="M29.25 19.5C27.3216 19.5 25.4366 20.0718 23.8332 21.1432C22.2298 22.2145 20.9801 23.7373 20.2422 25.5188C19.5042 27.3004 19.3111 29.2608 19.6873 31.1521C20.0636 33.0434 20.9922 34.7807 22.3557 36.1443C23.7193 37.5079 25.4566 38.4365 27.3479 38.8127C29.2392 39.1889 31.1996 38.9958 32.9812 38.2578C34.7627 37.5199 36.2855 36.2702 37.3568 34.6668C38.4282 33.0634 39 31.1784 39 29.25V9.75C39 12.3359 37.9728 14.8158 36.1443 16.6443C34.3158 18.4728 31.8359 19.5 29.25 19.5Z" fill="#1E4BA0"/>
<path id="Vector_4" fill-rule="evenodd" clip-rule="evenodd" d="M31.6875 10.9688C31.6875 11.292 31.5591 11.602 31.3305 11.8305C31.102 12.0591 30.792 12.1875 30.4688 12.1875H26.8125C26.4893 12.1875 26.1793 12.3159 25.9507 12.5445C25.7222 12.773 25.5938 13.083 25.5938 13.4062V18.2812H30.2006C30.3809 18.2813 30.559 18.3213 30.722 18.3984C30.8849 18.4755 31.0288 18.5878 31.1431 18.7273C31.2574 18.8667 31.3394 19.0298 31.3831 19.2047C31.4267 19.3796 31.4311 19.5621 31.3957 19.7389C31.1695 20.8705 30.8621 22.4073 30.6645 23.3951C30.6093 23.6714 30.46 23.9201 30.2421 24.0987C30.0242 24.2774 29.7511 24.375 29.4694 24.375H25.5938V39H19.5V24.375H15.8438C15.5205 24.375 15.2105 24.2466 14.982 24.018C14.7534 23.7895 14.625 23.4795 14.625 23.1562V19.5C14.625 19.1768 14.7534 18.8668 14.982 18.6382C15.2105 18.4097 15.5205 18.2812 15.8438 18.2812H19.5V13.4062C19.5 11.4669 20.2704 9.60689 21.6418 8.23553C23.0131 6.86417 24.8731 6.09375 26.8125 6.09375H30.4688C30.792 6.09375 31.102 6.22215 31.3305 6.45071C31.5591 6.67927 31.6875 6.98927 31.6875 7.3125V10.9688Z" fill="white"/>
</g>
</g>
<defs>
<clipPath id="clip0_1_4039">
<rect width="39" height="39" fill="white"/>
</clipPath>
</defs>
</svg>
