<svg width="60" height="60" viewBox="0 0 60 60" fill="none" xmlns="http://www.w3.org/2000/svg">
<g id="Clip path group">
<mask id="mask0_1_3127" style="mask-type:luminance" maskUnits="userSpaceOnUse" x="0" y="0" width="60" height="60">
<g id="clip-path-12">
<path id="Rectangle 2318" d="M60 0H0V60H60V0Z" fill="white"/>
</g>
</mask>
<g mask="url(#mask0_1_3127)">
<g id="Mask Group 13">
<g id="hand-shake">
<g id="Group 44">
<g id="Group 43">
<path id="Path 176" d="M47.3798 36.9576C46.2026 34.5024 41.9894 31.0956 37.9202 27.8028C35.6498 25.968 33.5054 24.2328 32.1374 22.8648C31.9697 22.6967 31.7576 22.58 31.526 22.5281C31.2943 22.4762 31.0527 22.4915 30.8294 22.572C29.9894 22.8768 29.4674 23.112 29.057 23.292C28.536 23.5628 27.9633 23.7194 27.377 23.7516C27.1937 23.7697 27.0166 23.8282 26.8585 23.9228C26.7004 24.0174 26.5652 24.1458 26.4626 24.2988C24.695 26.9388 22.8626 26.7168 21.6422 26.3064C21.2522 26.1768 21.1826 26.0088 21.1442 25.8492C20.8814 24.7512 22.199 22.1964 23.9042 20.4888C27.9662 16.4232 30.0614 15.4068 34.487 17.3832C39.5066 19.6284 44.537 21.3852 44.5874 21.4032C44.7425 21.4572 44.9068 21.48 45.0708 21.4705C45.2348 21.461 45.3953 21.4193 45.5432 21.3478C45.691 21.2762 45.8233 21.1763 45.9326 21.0536C46.0418 20.9309 46.1258 20.7879 46.1798 20.6328C46.2338 20.4776 46.2567 20.3134 46.2472 20.1494C46.2376 19.9854 46.1959 19.8249 46.1244 19.677C46.0529 19.5292 45.9529 19.3968 45.8302 19.2876C45.7075 19.1784 45.5645 19.0944 45.4094 19.0404C45.359 19.0224 40.4294 17.3004 35.5094 15.0984C29.777 12.5364 26.6294 14.2236 22.139 18.7188C20.429 20.4288 18.107 23.8884 18.707 26.4264C18.8339 26.9582 19.0996 27.4468 19.477 27.8425C19.8543 28.2382 20.3298 28.5267 20.855 28.6788C22.1839 29.147 23.6319 29.153 24.9646 28.6956C26.2973 28.2382 27.4365 27.3444 28.1978 26.1588C28.8514 26.0584 29.4851 25.8559 30.0758 25.5588C30.3158 25.4544 30.5858 25.3308 30.9506 25.1844C32.381 26.5272 34.3106 28.0896 36.3434 29.7324C40.019 32.7048 44.1854 36.0744 45.1238 38.0244C45.2973 38.33 45.3552 38.6878 45.2869 39.0325C45.2186 39.3773 45.0287 39.686 44.7518 39.9024C44.5564 40.1035 44.3044 40.2401 44.0293 40.2942C43.7541 40.3482 43.4691 40.317 43.2122 40.2048C43.0153 40.0686 42.7833 39.9919 42.544 39.9837C42.3047 39.9756 42.0681 40.0364 41.8624 40.1589C41.6567 40.2815 41.4905 40.4605 41.3837 40.6748C41.2769 40.8891 41.2338 41.1296 41.2598 41.3676C41.2601 41.6716 41.1686 41.9686 40.9974 42.2198C40.8261 42.4709 40.5829 42.6645 40.2998 42.7752C40.0087 42.9558 39.6747 43.0553 39.3322 43.0633C38.9897 43.0714 38.6514 42.9876 38.3522 42.8208C38.1815 42.661 37.9693 42.5523 37.7399 42.5072C37.5105 42.462 37.2729 42.4821 37.0544 42.5653C36.8358 42.6484 36.645 42.7912 36.5036 42.9775C36.3622 43.1637 36.2759 43.3859 36.2546 43.6188C36.2036 44.0417 36.0397 44.443 35.7802 44.7808C35.5208 45.1186 35.1752 45.3804 34.7798 45.5388C34.5445 45.6472 34.2825 45.6839 34.0264 45.6445C33.7703 45.605 33.5315 45.491 33.3398 45.3168C33.1873 45.1793 33.0035 45.081 32.8045 45.0304C32.6054 44.9798 32.3971 44.9784 32.1974 45.0264C31.9976 45.0752 31.813 45.1726 31.66 45.3099C31.507 45.4472 31.3902 45.6203 31.3202 45.8136C31.2722 45.9336 31.1654 46.2384 30.0002 46.2384C28.9131 46.1261 27.8659 45.7679 26.9378 45.1908C26.0606 44.6136 20.5574 40.5108 15.8054 36.528C15.1382 35.9652 13.9826 34.7604 12.9626 33.696C12.0578 32.7504 11.2298 31.896 10.8026 31.536C10.6772 31.4299 10.5321 31.3496 10.3756 31.2996C10.2191 31.2497 10.0543 31.231 9.89062 31.2447C9.72693 31.2584 9.56754 31.3042 9.42156 31.3795C9.27557 31.4548 9.14585 31.5581 9.03979 31.6836C8.8256 31.9369 8.72083 32.265 8.74851 32.5956C8.77619 32.9261 8.93406 33.2322 9.18739 33.4464C9.57499 33.774 10.325 34.566 11.1518 35.4288C12.2666 36.594 13.4198 37.7988 14.1938 38.4492C18.857 42.3576 24.4526 46.5576 25.565 47.292C26.9024 48.1358 28.4276 48.6358 30.005 48.7476C31.0206 48.8121 32.0261 48.5144 32.843 47.9076C33.7605 48.2565 34.7759 48.2457 35.6858 47.8776C36.8211 47.4283 37.7489 46.5728 38.2886 45.4776C39.3557 45.6839 40.4612 45.5245 41.4266 45.0252C42.3664 44.579 43.1095 43.803 43.5146 42.8448C44.5672 42.8846 45.5946 42.5167 46.3826 41.8176C47.0754 41.2407 47.5514 40.4454 47.7326 39.5623C47.9138 38.6792 47.7894 37.7607 47.3798 36.9576Z" fill="#F26327"/>
</g>
</g>
<g id="Group 46">
<g id="Group 45">
<path id="Path 177" d="M24.9962 16.2413H13.7462C13.5788 16.2361 13.4121 16.2646 13.2559 16.3251C13.0997 16.3856 12.9573 16.4768 12.8371 16.5934C12.7168 16.7099 12.6212 16.8495 12.556 17.0037C12.4907 17.1579 12.457 17.3237 12.457 17.4911C12.457 17.6586 12.4907 17.8243 12.556 17.9786C12.6212 18.1328 12.7168 18.2723 12.8371 18.3889C12.9573 18.5054 13.0997 18.5967 13.2559 18.6571C13.4121 18.7176 13.5788 18.7461 13.7462 18.7409H24.9962C25.1635 18.7461 25.3303 18.7176 25.4864 18.6571C25.6426 18.5967 25.785 18.5054 25.9053 18.3889C26.0255 18.2723 26.1211 18.1328 26.1864 17.9786C26.2517 17.8243 26.2853 17.6586 26.2853 17.4911C26.2853 17.3237 26.2517 17.1579 26.1864 17.0037C26.1211 16.8495 26.0255 16.7099 25.9053 16.5934C25.785 16.4768 25.6426 16.3856 25.4864 16.3251C25.3303 16.2646 25.1635 16.2361 24.9962 16.2413Z" fill="#F26327"/>
</g>
</g>
<g id="Group 48">
<g id="Group 47">
<path id="Path 178" d="M51.0396 34.3038C50.9483 34.1672 50.8309 34.05 50.6941 33.959C50.5573 33.8679 50.4039 33.8048 50.2426 33.7732C50.0814 33.7417 49.9155 33.7423 49.7545 33.7751C49.5935 33.8078 49.4405 33.8721 49.3044 33.9642L45.6504 36.4194C45.3907 36.6103 45.2148 36.8941 45.1593 37.2117C45.1038 37.5292 45.1731 37.8558 45.3527 38.1235C45.5323 38.3912 45.8083 38.5792 46.1231 38.6482C46.4379 38.7173 46.7673 38.6621 47.0424 38.4942L50.6976 36.039C50.9729 35.8541 51.1635 35.5675 51.2276 35.2421C51.2917 34.9168 51.2241 34.5793 51.0396 34.3038Z" fill="#F26327"/>
</g>
</g>
<g id="Group 50">
<g id="Group 49">
<path id="Path 179" d="M43.2831 40.2731C42.3879 39.5675 38.3859 35.4731 35.9103 32.8907C35.6764 32.6732 35.368 32.5535 35.0485 32.5562C34.7291 32.5589 34.4227 32.6837 34.1924 32.9051C33.9621 33.1265 33.8253 33.4277 33.81 33.7468C33.7948 34.0659 33.9022 34.3788 34.1103 34.6211C34.7523 35.2907 40.4199 41.1983 41.7375 42.2387C41.9576 42.4125 42.2299 42.5068 42.5103 42.5063C42.7001 42.5054 42.8871 42.4618 43.0577 42.3787C43.2282 42.2956 43.3779 42.1752 43.4955 42.0263C43.6998 41.7656 43.7921 41.4345 43.7523 41.1058C43.7124 40.777 43.5437 40.4775 43.2831 40.2731Z" fill="#F26327"/>
</g>
</g>
<g id="Group 52">
<g id="Group 51">
<path id="Path 180" d="M38.282 42.7839C36.7844 41.5839 33.0224 37.5891 32.1716 36.6639C32.0605 36.5429 31.9267 36.445 31.7777 36.3758C31.6288 36.3066 31.4677 36.2674 31.3036 36.2604C31.1395 36.2534 30.9757 36.2789 30.8214 36.3352C30.6672 36.3916 30.5255 36.4778 30.4046 36.5889C30.2836 36.7 30.1858 36.8338 30.1165 36.9827C30.0473 37.1316 30.0081 37.2927 30.0011 37.4568C29.9942 37.6209 30.0196 37.7848 30.0759 37.939C30.1323 38.0933 30.2185 38.2349 30.3296 38.3559C30.3752 38.4039 34.8644 43.2507 36.7196 44.7363C36.9797 44.9288 37.3043 45.013 37.6253 44.9711C37.9462 44.9293 38.2383 44.7646 38.4404 44.5118C38.6424 44.2589 38.7385 43.9376 38.7085 43.6154C38.6785 43.2931 38.5248 42.9951 38.2796 42.7839H38.282Z" fill="#F26327"/>
</g>
</g>
<g id="Group 54">
<g id="Group 53">
<path id="Path 181" d="M33.317 45.2851C31.535 43.7827 27.887 39.9007 27.1742 39.1375C27.062 39.0175 26.9274 38.9208 26.7779 38.8528C26.6284 38.7849 26.4669 38.747 26.3028 38.7414C25.9713 38.7302 25.6489 38.8511 25.4066 39.0775C25.1642 39.304 25.0217 39.6174 25.0105 39.9489C24.9992 40.2804 25.1201 40.6028 25.3466 40.8451C26.3714 41.9431 29.8622 45.6451 31.7066 47.1979C31.8322 47.3038 31.9774 47.3839 32.1339 47.4337C32.2905 47.4835 32.4553 47.5019 32.619 47.488C32.7827 47.4741 32.9421 47.4281 33.088 47.3525C33.2339 47.277 33.3635 47.1735 33.4694 47.0479C33.5753 46.9223 33.6554 46.7771 33.7052 46.6205C33.7549 46.464 33.7734 46.2991 33.7595 46.1355C33.7455 45.9718 33.6995 45.8124 33.624 45.6665C33.5485 45.5206 33.445 45.391 33.3194 45.2851H33.317Z" fill="#F26327"/>
</g>
</g>
<g id="Group 56">
<g id="Group 55">
<path id="Path 182" d="M14.61 14.0912C12.468 12.062 3.9 11.3996 1.32 11.252C1.1503 11.2424 0.980412 11.2675 0.820746 11.3258C0.661079 11.3841 0.514991 11.4743 0.391421 11.5911C0.267852 11.7078 0.169403 11.8485 0.102099 12.0046C0.0347952 12.1607 5.33447e-05 12.3288 0 12.4988L0 34.9988C0 35.3304 0.131738 35.6485 0.366234 35.883C0.600729 36.1175 0.918773 36.2492 1.2504 36.2492H8.7504C9.01415 36.2492 9.27113 36.1658 9.48454 36.0108C9.69794 35.8558 9.85682 35.6372 9.9384 35.3864C10.1208 34.826 14.4288 21.6068 14.9964 15.1064C15.013 14.919 14.9869 14.7302 14.9199 14.5544C14.853 14.3785 14.747 14.2202 14.61 14.0912ZM7.8372 33.7496H2.4996V13.8392C6.5172 14.1572 10.8516 14.8472 12.4272 15.6116C11.76 21.0872 8.7672 30.8144 7.8372 33.7496Z" fill="#2D4572"/>
</g>
</g>
<g id="Group 58">
<g id="Group 57">
<path id="Path 183" d="M58.7418 13.7593C48.927 13.7593 43.4814 16.2721 43.2546 16.3765C43.0946 16.4512 42.9523 16.5593 42.8372 16.6933C42.7222 16.8274 42.637 16.9845 42.5874 17.1541C42.5381 17.3235 42.5248 17.5015 42.5486 17.6763C42.5724 17.8512 42.6326 18.0192 42.7254 18.1693C44.2722 20.6569 49.107 34.4713 50.0322 37.8421C50.1046 38.1051 50.261 38.3373 50.4777 38.5031C50.6944 38.6688 50.9594 38.7591 51.2322 38.7601H58.7322C58.8972 38.7613 59.0609 38.7299 59.2137 38.6677C59.3665 38.6054 59.5055 38.5135 59.6226 38.3973C59.7397 38.281 59.8327 38.1427 59.8961 37.9904C59.9596 37.8381 59.9922 37.6747 59.9922 37.5097V15.0097C59.9924 14.8454 59.9602 14.6828 59.8974 14.531C59.8346 14.3792 59.7425 14.2413 59.6264 14.1252C59.5102 14.009 59.3723 13.9169 59.2205 13.8541C59.0688 13.7914 58.9061 13.7591 58.7418 13.7593ZM57.4914 36.2593H52.1778C50.9922 32.3989 47.4978 22.3393 45.5406 18.1741C49.4078 16.949 53.4362 16.3087 57.4926 16.2745L57.4914 36.2593Z" fill="#2D4572"/>
</g>
</g>
</g>
</g>
</g>
</g>
</svg>
