<svg width="39" height="39" viewBox="0 0 39 39" fill="none" xmlns="http://www.w3.org/2000/svg">
<g id="instagram 2" clip-path="url(#clip0_1_4030)">
<g id="Group">
<path id="Vector" fill-rule="evenodd" clip-rule="evenodd" d="M29.25 39H9.75C7.16417 38.9999 4.68429 37.9726 2.85583 36.1442C1.02738 34.3157 0.000113122 31.8358 0 29.25L0 9.75C0.000113122 7.16417 1.02738 4.68429 2.85583 2.85583C4.68429 1.02738 7.16417 0.000113122 9.75 0L29.25 0C31.8359 0 34.3158 1.02723 36.1443 2.85571C37.9728 4.68419 39 7.16414 39 9.75V29.25C39 31.8359 37.9728 34.3158 36.1443 36.1443C34.3158 37.9728 31.8359 39 29.25 39Z" fill="#FF3A55"/>
<path id="Vector_2" fill-rule="evenodd" clip-rule="evenodd" d="M18.2812 10.9688H29.25C30.656 10.9687 32.0083 10.4286 33.0275 9.46019C34.0468 8.49174 34.6553 7.16884 34.7272 5.76469C34.7992 4.36054 34.3291 2.98238 33.4142 1.91482C32.4992 0.847257 31.2092 0.171833 29.8106 0.0280313C29.6242 0.0176719 29.4395 0 29.25 0H9.75C7.16417 0.000113122 4.68429 1.02738 2.85583 2.85583C1.02738 4.68429 0.000113122 7.16417 0 9.75L0 29.25C0.000113127 24.4015 1.9262 19.7517 5.35458 16.3233C8.78295 12.895 13.4328 10.9689 18.2812 10.9688Z" fill="#FF796C"/>
<path id="Vector_3" fill-rule="evenodd" clip-rule="evenodd" d="M29.25 19.5C27.3216 19.5 25.4366 20.0718 23.8332 21.1432C22.2298 22.2145 20.9801 23.7373 20.2422 25.5188C19.5042 27.3004 19.3111 29.2608 19.6873 31.1521C20.0636 33.0434 20.9922 34.7807 22.3557 36.1443C23.7193 37.5079 25.4566 38.4365 27.3479 38.8127C29.2392 39.1889 31.1996 38.9958 32.9812 38.2578C34.7627 37.5199 36.2855 36.2702 37.3568 34.6668C38.4282 33.0634 39 31.1784 39 29.25V9.75C39 12.3359 37.9728 14.8158 36.1443 16.6443C34.3158 18.4728 31.8359 19.5 29.25 19.5Z" fill="#E00047"/>
</g>
<path id="Vector_4" d="M27.1172 13.4062C27.9586 13.4062 28.6406 12.7242 28.6406 11.8828C28.6406 11.0414 27.9586 10.3594 27.1172 10.3594C26.2758 10.3594 25.5938 11.0414 25.5938 11.8828C25.5938 12.7242 26.2758 13.4062 27.1172 13.4062Z" fill="white"/>
<path id="Vector_5" fill-rule="evenodd" clip-rule="evenodd" d="M19.5 14.625C20.4642 14.625 21.4067 14.9109 22.2084 15.4466C23.0101 15.9823 23.6349 16.7436 24.0039 17.6344C24.3729 18.5252 24.4694 19.5054 24.2813 20.4511C24.0932 21.3967 23.6289 22.2654 22.9471 22.9471C22.2654 23.6289 21.3967 24.0932 20.4511 24.2813C19.5054 24.4694 18.5252 24.3729 17.6344 24.0039C16.7436 23.6349 15.9823 23.0101 15.4466 22.2084C14.9109 21.4067 14.625 20.4642 14.625 19.5C14.6257 18.2073 15.1395 16.9677 16.0536 16.0536C16.9677 15.1395 18.2073 14.6257 19.5 14.625ZM19.5 12.1875C20.9463 12.1875 22.3601 12.6164 23.5626 13.4199C24.7651 14.2234 25.7024 15.3654 26.2559 16.7016C26.8093 18.0378 26.9541 19.5081 26.672 20.9266C26.3898 22.3451 25.6934 23.648 24.6707 24.6707C23.648 25.6934 22.3451 26.3898 20.9266 26.672C19.5081 26.9541 18.0378 26.8093 16.7016 26.2559C15.3654 25.7024 14.2234 24.7651 13.4199 23.5626C12.6164 22.3601 12.1875 20.9463 12.1875 19.5C12.1884 17.5609 12.9591 15.7015 14.3303 14.3303C15.7015 12.9591 17.5609 12.1884 19.5 12.1875Z" fill="white"/>
<path id="Vector_6" fill-rule="evenodd" clip-rule="evenodd" d="M31.6875 13.4062C31.6875 11.7901 31.0455 10.2401 29.9027 9.09732C28.7599 7.95452 27.2099 7.3125 25.5938 7.3125H13.4062C11.7901 7.3125 10.2401 7.95452 9.09732 9.09732C7.95452 10.2401 7.3125 11.7901 7.3125 13.4062V25.5938C7.3125 27.2099 7.95452 28.7599 9.09732 29.9027C10.2401 31.0455 11.7901 31.6875 13.4062 31.6875H25.5938C27.2099 31.6875 28.7599 31.0455 29.9027 29.9027C31.0455 28.7599 31.6875 27.2099 31.6875 25.5938V13.4062ZM34.125 13.4062C34.125 11.1436 33.2262 8.97366 31.6263 7.37375C30.0263 5.77383 27.8564 4.875 25.5938 4.875H13.4062C11.1436 4.875 8.97366 5.77383 7.37375 7.37375C5.77383 8.97366 4.875 11.1436 4.875 13.4062V25.5938C4.875 27.8564 5.77383 30.0263 7.37375 31.6263C8.97366 33.2262 11.1436 34.125 13.4062 34.125H25.5938C27.8564 34.125 30.0263 33.2262 31.6263 31.6263C33.2262 30.0263 34.125 27.8564 34.125 25.5938V13.4062Z" fill="white"/>
</g>
<defs>
<clipPath id="clip0_1_4030">
<rect width="39" height="39" fill="white"/>
</clipPath>
</defs>
</svg>
