<svg width="39" height="39" viewBox="0 0 39 39" fill="none" xmlns="http://www.w3.org/2000/svg">
<g id="linkedin 2" clip-path="url(#clip0_1_4021)">
<g id="Group">
<path id="Vector" fill-rule="evenodd" clip-rule="evenodd" d="M29.25 39H9.75C7.16417 38.9999 4.68429 37.9726 2.85583 36.1442C1.02738 34.3157 0.000113122 31.8358 0 29.25L0 9.75C0.000113122 7.16417 1.02738 4.68429 2.85583 2.85583C4.68429 1.02738 7.16417 0.000113122 9.75 0L29.25 0C31.8359 0 34.3158 1.02723 36.1443 2.85571C37.9728 4.68419 39 7.16414 39 9.75V29.25C39 31.8359 37.9728 34.3158 36.1443 36.1443C34.3158 37.9728 31.8359 39 29.25 39Z" fill="#2864B4"/>
<path id="Vector_2" fill-rule="evenodd" clip-rule="evenodd" d="M18.2812 10.9688H29.25C30.656 10.9687 32.0083 10.4286 33.0275 9.46019C34.0468 8.49174 34.6553 7.16884 34.7272 5.76469C34.7992 4.36054 34.3291 2.98238 33.4142 1.91482C32.4992 0.847257 31.2092 0.171833 29.8106 0.0280313C29.6242 0.0176719 29.4395 0 29.25 0H9.75C7.16417 0.000113122 4.68429 1.02738 2.85583 2.85583C1.02738 4.68429 0.000113122 7.16417 0 9.75L0 29.25C0.000113127 24.4015 1.9262 19.7517 5.35458 16.3233C8.78295 12.895 13.4328 10.9689 18.2812 10.9688Z" fill="#417DCD"/>
<path id="Vector_3" fill-rule="evenodd" clip-rule="evenodd" d="M29.25 19.5C27.3216 19.5 25.4366 20.0718 23.8332 21.1432C22.2298 22.2145 20.9801 23.7373 20.2422 25.5188C19.5042 27.3004 19.3111 29.2608 19.6873 31.1521C20.0636 33.0434 20.9922 34.7807 22.3557 36.1443C23.7193 37.5079 25.4566 38.4365 27.3479 38.8127C29.2392 39.1889 31.1996 38.9958 32.9812 38.2578C34.7627 37.5199 36.2855 36.2702 37.3568 34.6668C38.4282 33.0634 39 31.1784 39 29.25V9.75C39 12.3359 37.9728 14.8158 36.1443 16.6443C34.3158 18.4728 31.8359 19.5 29.25 19.5Z" fill="#0F4B9B"/>
</g>
<path id="Vector_4" d="M10.9688 15.2344H8.53125C7.85815 15.2344 7.3125 15.78 7.3125 16.4531V30.4688C7.3125 31.1418 7.85815 31.6875 8.53125 31.6875H10.9688C11.6418 31.6875 12.1875 31.1418 12.1875 30.4688V16.4531C12.1875 15.78 11.6418 15.2344 10.9688 15.2344Z" fill="white"/>
<path id="Vector_5" d="M9.75 12.7969C11.4327 12.7969 12.7969 11.4327 12.7969 9.75C12.7969 8.06726 11.4327 6.70312 9.75 6.70312C8.06726 6.70312 6.70312 8.06726 6.70312 9.75C6.70312 11.4327 8.06726 12.7969 9.75 12.7969Z" fill="white"/>
<path id="Vector_6" fill-rule="evenodd" clip-rule="evenodd" d="M20.7188 17.4525C21.2102 16.5935 21.9198 15.8795 22.7759 15.383C23.632 14.8865 24.6041 14.625 25.5938 14.625C28.6936 14.625 31.6875 16.4531 31.6875 21.3281V30.4688C31.6875 30.6288 31.6561 30.7873 31.5948 30.9352C31.5336 31.0831 31.4438 31.2175 31.3306 31.3306C31.2175 31.4438 31.0831 31.5336 30.9352 31.5948C30.7873 31.6561 30.6288 31.6875 30.4688 31.6875H28.0312C27.8712 31.6875 27.7127 31.6561 27.5648 31.5948C27.4169 31.5336 27.2825 31.4438 27.1694 31.3306C27.0562 31.2175 26.9664 31.0831 26.9052 30.9352C26.8439 30.7873 26.8125 30.6288 26.8125 30.4688V21.9375C26.8125 21.1294 26.4915 20.3544 25.9201 19.783C25.3487 19.2116 24.5737 18.8906 23.7656 18.8906C22.9575 18.8906 22.1826 19.2116 21.6112 19.783C21.0398 20.3544 20.7188 21.1294 20.7188 21.9375V30.4688C20.7188 30.6288 20.6873 30.7873 20.6261 30.9352C20.5648 31.0831 20.4751 31.2175 20.3619 31.3306C20.2487 31.4438 20.1143 31.5336 19.9665 31.5948C19.8186 31.6561 19.6601 31.6875 19.5 31.6875H17.0625C16.9024 31.6875 16.7439 31.6561 16.596 31.5948C16.4482 31.5336 16.3138 31.4438 16.2006 31.3306C16.0874 31.2175 15.9977 31.0831 15.9364 30.9352C15.8752 30.7873 15.8437 30.6288 15.8438 30.4688V16.4531C15.8437 16.2931 15.8752 16.1346 15.9364 15.9867C15.9977 15.8388 16.0874 15.7044 16.2006 15.5912C16.3138 15.4781 16.4482 15.3883 16.596 15.327C16.7439 15.2658 16.9024 15.2343 17.0625 15.2344H19.5C19.6601 15.2343 19.8186 15.2658 19.9665 15.327C20.1143 15.3883 20.2487 15.4781 20.3619 15.5912C20.4751 15.7044 20.5648 15.8388 20.6261 15.9867C20.6873 16.1346 20.7188 16.2931 20.7188 16.4531V17.4525Z" fill="white"/>
</g>
<defs>
<clipPath id="clip0_1_4021">
<rect width="39" height="39" fill="white"/>
</clipPath>
</defs>
</svg>
