<svg width="60" height="60" viewBox="0 0 60 60" fill="none" xmlns="http://www.w3.org/2000/svg">
<g id="Clip path group">
<mask id="mask0_1_3105" style="mask-type:luminance" maskUnits="userSpaceOnUse" x="0" y="0" width="60" height="60">
<g id="clip-path-11">
<path id="Rectangle 2316" d="M60 0H0V60H60V0Z" fill="white"/>
</g>
</mask>
<g mask="url(#mask0_1_3105)">
<g id="Mask Group 11">
<g id="funding">
<path id="Path 163" d="M37.462 46.4709C37.3157 46.9889 36.9724 47.429 36.5057 47.697C36.039 47.965 35.4859 48.0397 34.9648 47.9049C33.0316 47.4309 28.4512 46.3281 28.4512 46.3281" stroke="#F26327" stroke-width="1.5" stroke-miterlimit="10" stroke-linecap="round" stroke-linejoin="round"/>
<path id="Path 164" d="M37.462 46.4709C37.3157 46.9889 36.9724 47.429 36.5057 47.697C36.039 47.965 35.4859 48.0397 34.9648 47.9049C33.0316 47.4309 28.4512 46.3281 28.4512 46.3281" stroke="#2D4572" stroke-width="1.5" stroke-miterlimit="10" stroke-linecap="round" stroke-linejoin="round"/>
<path id="Path 165" d="M18.047 55.7698L12.6098 43.9246C12.4472 43.5702 12.1508 43.2947 11.7856 43.1584C11.4203 43.0221 11.0159 43.0361 10.661 43.1974L7.95378 44.4418C7.76998 44.5258 7.60458 44.6453 7.46706 44.7934C7.32953 44.9415 7.22259 45.1153 7.15236 45.3048C7.08213 45.4944 7.04999 45.6959 7.05778 45.8978C7.06558 46.0998 7.11315 46.2982 7.19778 46.4818L12.5786 58.2142C12.6626 58.398 12.7822 58.5634 12.9303 58.7009C13.0784 58.8384 13.2522 58.9453 13.4417 59.0156C13.6312 59.0858 13.8327 59.1179 14.0346 59.1101C14.2366 59.1024 14.435 59.0548 14.6186 58.9702L17.321 57.7174C17.6748 57.5546 17.9498 57.2583 18.0858 56.8934C18.2219 56.5284 18.2079 56.1244 18.047 55.7698Z" stroke="#2D4572" stroke-width="1.5" stroke-miterlimit="10" stroke-linecap="round" stroke-linejoin="round"/>
<path id="Path 166" d="M22.5449 13.5152C22.6912 12.9972 23.0344 12.5571 23.5012 12.2891C23.9679 12.0211 24.521 11.9465 25.0421 12.0812C26.9753 12.5552 31.5557 13.658 31.5557 13.658" stroke="#F26327" stroke-width="1.5" stroke-miterlimit="10" stroke-linecap="round" stroke-linejoin="round"/>
<path id="Path 167" d="M22.5449 13.5152C22.6912 12.9972 23.0344 12.5571 23.5012 12.2891C23.9679 12.0211 24.521 11.9465 25.0421 12.0812C26.9753 12.5552 31.5557 13.658 31.5557 13.658" stroke="#2D4572" stroke-width="1.5" stroke-miterlimit="10" stroke-linecap="round" stroke-linejoin="round"/>
<path id="Path 168" d="M7.30968 15.652C8.45808 18.052 11.1017 16.9168 11.3237 16.834L22.5461 13.5136C22.3336 14.1431 22.3784 14.831 22.6705 15.4276C22.9627 16.0243 23.4786 16.4814 24.1061 16.6996C30.5537 19.2736 31.3229 19.7092 32.9549 19.7344C37.9949 19.7176 38.9129 19.6768 41.4197 18.5548C42.7246 17.9694 43.9703 17.2602 45.1397 16.4368C45.7429 16.0121 46.4009 15.671 47.0957 15.4228L42.5801 5.57204L39.5657 6.72044C37.3917 7.50927 35.013 7.52875 32.8265 6.77564L28.6649 5.11124C27.8266 4.81495 26.9374 4.68969 26.0499 4.74287C25.1624 4.79604 24.2946 5.02658 23.4977 5.42084L8.97048 11.8468C8.52888 12.0724 6.31848 13.3984 7.30968 15.652Z" stroke="#2D4572" stroke-width="1.5" stroke-miterlimit="10" stroke-linecap="round" stroke-linejoin="round"/>
<path id="Path 169" d="M41.9623 4.21467L47.3947 16.0587C47.5585 16.413 47.8563 16.6878 48.2226 16.8227C48.5888 16.9577 48.9937 16.9419 49.3483 16.7787L52.0555 15.5367C52.2393 15.4526 52.4047 15.3331 52.5422 15.185C52.6797 15.0369 52.7867 14.8631 52.8569 14.6736C52.9271 14.4841 52.9593 14.2826 52.9515 14.0806C52.9437 13.8786 52.8961 13.6802 52.8115 13.4967L47.4295 1.77507C47.3454 1.59127 47.2259 1.42587 47.0778 1.28835C46.9297 1.15082 46.7559 1.04388 46.5664 0.97365C46.3769 0.903418 46.1754 0.871278 45.9734 0.879072C45.7715 0.886866 45.573 0.934441 45.3895 1.01907L42.6871 2.26107C42.3319 2.42406 42.0561 2.72143 41.9201 3.08778C41.7842 3.45414 41.7994 3.85948 41.9623 4.21467Z" stroke="#2D4572" stroke-width="1.5" stroke-miterlimit="10" stroke-linecap="round" stroke-linejoin="round"/>
<g id="Group 40">
<path id="Path 170" d="M32.9241 26.2777C32.1849 25.5507 31.2064 25.1178 30.1713 25.0597C29.5021 25.0181 28.8429 25.2385 28.3334 25.6744C27.8239 26.1102 27.5039 26.7273 27.4413 27.3949C27.4413 28.5793 28.9305 29.5273 30.8133 30.0229C32.6961 30.5185 33.0933 31.4929 33.0933 32.5309C33.0933 33.5689 32.1765 34.9069 30.0249 34.9069C29.4182 34.9205 28.8173 34.7854 28.2747 34.5135C27.7322 34.2416 27.2643 33.8411 26.9121 33.3469" stroke="#F26327" stroke-width="1.5" stroke-miterlimit="10" stroke-linecap="round" stroke-linejoin="round"/>
<g id="Group 39">
<path id="Line 4" d="M30.0059 23.2344V24.558" stroke="#F26327" stroke-width="1.5" stroke-miterlimit="10" stroke-linecap="round" stroke-linejoin="round"/>
<path id="Line 5" d="M30.0059 35.4126V36.7362" stroke="#F26327" stroke-width="1.5" stroke-miterlimit="10" stroke-linecap="round" stroke-linejoin="round"/>
</g>
</g>
<path id="Path 171" d="M45.3542 50.6521L51.0314 48.1405C51.4718 47.9149 53.6822 46.5877 52.6922 44.3353C51.5438 41.9353 48.9002 43.0705 48.6782 43.1533L37.4558 46.4737C37.6683 45.8443 37.6236 45.1564 37.3314 44.5597C37.0393 43.9631 36.5233 43.5059 35.8958 43.2877C29.4482 40.7137 28.6791 40.2781 27.0471 40.2529C22.0071 40.2697 21.0891 40.3105 18.5823 41.4325C17.2774 42.0179 16.0317 42.7272 14.8623 43.5505C14.259 43.9753 13.601 44.3164 12.9062 44.5645L17.4243 54.4153L20.4386 53.2705C22.6126 52.4817 24.9913 52.4622 27.1778 53.2153L31.3382 54.8761C32.1765 55.1724 33.0657 55.2977 33.9532 55.2445C34.8407 55.1913 35.7085 54.9608 36.5054 54.5665L41.6006 52.3129" stroke="#2D4572" stroke-width="1.5" stroke-miterlimit="10" stroke-linecap="round" stroke-linejoin="round"/>
<path id="Path 172" d="M41.5779 27.9119C41.2686 26.1949 40.5816 24.5682 39.5666 23.1493C38.5515 21.7303 37.2338 20.5547 35.7088 19.7075C34.9456 19.7243 34.0456 19.7291 32.9488 19.7327C31.762 19.7135 31.0287 19.4783 28.2423 18.3623C25.8136 18.7278 23.5602 19.8446 21.7984 21.556C20.0367 23.2673 18.8549 25.4873 18.4191 27.9045C17.9832 30.3216 18.3151 32.8145 19.3682 35.0335C20.4212 37.2524 22.1426 39.0859 24.2908 40.2767C25.054 40.2599 25.9539 40.2551 27.0507 40.2515C28.2375 40.2707 28.9708 40.5059 31.7572 41.6219C34.1961 41.2525 36.4574 40.126 38.2213 38.4017C39.9853 36.6773 41.1629 34.4423 41.5875 32.0123" stroke="#2D4572" stroke-width="1.5" stroke-miterlimit="10" stroke-linecap="round" stroke-linejoin="round"/>
</g>
</g>
</g>
</g>
</svg>
