<svg width="40" height="54" viewBox="0 0 40 54" fill="none" xmlns="http://www.w3.org/2000/svg">
<g id="right-arrow">
<g id="Group 6">
<g id="Group 5">
<g id="Group 3">
<path id="Path 22" d="M30.7577 18.3565L10.0734 37.004C9.79399 37.2557 9.42927 37.3892 9.05952 37.3752C8.68978 37.3612 8.34528 37.2008 8.10183 36.9293C7.85838 36.6578 7.73591 36.2975 7.76136 35.9276C7.78681 35.5576 7.95812 35.2085 8.23756 34.9568L26.3764 18.6005L14.4169 18.1474C14.2337 18.1404 14.0547 18.0974 13.8902 18.0208C13.7258 17.9443 13.579 17.8356 13.4583 17.701C13.3377 17.5665 13.2455 17.4087 13.187 17.2366C13.1285 17.0646 13.1049 16.8817 13.1175 16.6983C13.1302 16.515 13.1787 16.3348 13.2605 16.1681C13.3423 16.0014 13.4557 15.8513 13.5942 15.7266C13.7327 15.6019 13.8936 15.5049 14.0677 15.4411C14.2419 15.3774 14.4258 15.3481 14.6091 15.3551L29.9436 15.9362C30.2198 15.946 30.4842 16.038 30.7031 16.2004C30.9219 16.3628 31.0853 16.5882 31.1722 16.8478C31.2586 17.107 31.2658 17.3882 31.1929 17.6564C31.12 17.9245 30.9703 18.1677 30.7624 18.3555L30.7577 18.3565Z" fill="#36B44A"/>
</g>
<g id="Group 4">
<path id="Path 23" d="M29.8046 33.9495C29.6663 34.0754 29.5051 34.1732 29.3304 34.2373C29.1557 34.3014 28.971 34.3305 28.7871 34.3228C28.4148 34.3085 28.068 34.147 27.8229 33.8738C27.5778 33.6006 27.4544 33.238 27.4798 32.8657L28.5432 17.4195C28.5688 17.0471 28.7413 16.6956 29.0227 16.4423C29.3041 16.189 29.6714 16.0546 30.0438 16.0687C30.4161 16.0828 30.7631 16.2442 31.0082 16.5174C31.2534 16.7907 31.3767 17.1534 31.3511 17.5257L30.2877 32.972C30.2748 33.1567 30.2254 33.3382 30.1425 33.506C30.0596 33.6737 29.9447 33.8245 29.8046 33.9495Z" fill="#36B44A"/>
</g>
</g>
</g>
</g>
</svg>
