<svg width="26" height="27" viewBox="0 0 26 27" fill="none" xmlns="http://www.w3.org/2000/svg">
<g id="Group 198">
<path id="Path 174" d="M22.2035 22.7758C22.1143 22.7755 22.0258 22.7605 21.9416 22.7316L0.552482 15.2922C0.399862 15.2371 0.266723 15.1399 0.169153 15.0121C0.0715827 14.8844 0.0137561 14.7316 0.00266005 14.5723C-0.0101986 14.4129 0.0237472 14.2532 0.100471 14.1122C0.177194 13.9712 0.293475 13.8548 0.43552 13.7768L24.8046 0.830582C24.937 0.760681 25.0869 0.729198 25.2368 0.739805C25.3868 0.750412 25.5305 0.802672 25.6514 0.890491C25.7747 0.981313 25.8708 1.10315 25.9296 1.24316C25.9884 1.38317 26.0076 1.53616 25.9852 1.686L23.0072 22.0717C22.9904 22.1904 22.9475 22.3041 22.8816 22.405C22.8156 22.5059 22.7282 22.5915 22.6253 22.656C22.4994 22.7342 22.3525 22.7758 22.2035 22.7758ZM2.86773 14.3493L21.5427 20.846L24.1418 3.04426L2.86773 14.3493Z" fill="#F26327"/>
<path id="Path 175" d="M8.82621 26.2657C8.73265 26.2657 8.63961 26.2518 8.5503 26.2244C8.37557 26.174 8.22185 26.0699 8.1116 25.9275C8.00134 25.7851 7.94034 25.6118 7.9375 25.4329V17.9394C7.93843 17.7266 8.02379 17.5226 8.17542 17.3707L24.4611 0.995002C24.6261 0.83271 24.8478 0.738145 25.0812 0.730485C25.3145 0.722825 25.5421 0.802644 25.7177 0.953754C25.8027 1.02627 25.8716 1.11515 25.9202 1.2149C25.9687 1.31466 25.9959 1.42314 26 1.53364C26.0042 1.64414 25.9851 1.7543 25.9442 1.85727C25.9032 1.96025 25.8411 2.05386 25.7617 2.13229L9.71393 18.2664V22.8941L12.678 19.112C12.8235 18.933 13.0328 18.815 13.2635 18.782C13.4943 18.749 13.7292 18.8034 13.9206 18.9342C14.0138 18.9961 14.0932 19.0761 14.1537 19.1694C14.2142 19.2626 14.2546 19.367 14.2725 19.4762C14.2903 19.5854 14.2851 19.697 14.2572 19.8041C14.2294 19.9112 14.1794 20.0116 14.1105 20.099L9.54198 25.9278C9.45648 26.0337 9.34764 26.1191 9.22365 26.1776C9.09966 26.2362 8.96377 26.2663 8.82621 26.2657Z" fill="#F26327"/>
</g>
</svg>
