<svg width="60" height="60" viewBox="0 0 60 60" fill="none" xmlns="http://www.w3.org/2000/svg">
<mask id="mask0_1_3095" style="mask-type:luminance" maskUnits="userSpaceOnUse" x="0" y="0" width="60" height="60">
<path d="M60 0H0V60H60V0Z" fill="white"/>
</mask>
<g mask="url(#mask0_1_3095)">
<path d="M28.5724 40.0775C30.5936 40.9682 32.7777 41.4291 34.9864 41.4311C38.487 41.4531 41.9021 40.3509 44.7294 38.2868C47.5568 36.2227 49.647 33.3057 50.6925 29.9648C51.7381 26.624 51.6838 23.0358 50.5376 19.7282C49.3915 16.4205 47.2139 13.568 44.3255 11.5904C41.437 9.61284 37.99 8.61452 34.4917 8.74236C30.9935 8.8702 27.6286 10.1174 24.8921 12.3006C22.1557 14.4838 20.1922 17.4876 19.2905 20.8701C18.3888 24.2525 18.5966 27.8351 19.8832 31.0907L11.08 39.8939C9.39649 39.7053 7.69265 39.9483 6.12898 40.6C4.56531 41.2518 3.19327 42.2908 2.14209 43.6193C1.0909 44.9478 0.39517 46.522 0.12042 48.1936C-0.154331 49.8652 0.000942385 51.5793 0.571615 53.1743C0.643388 53.3723 0.763707 53.549 0.921538 53.6884C1.07937 53.8277 1.26966 53.9252 1.47496 53.9719C1.68026 54.0186 1.894 54.013 2.09658 53.9556C2.29916 53.8983 2.48409 53.791 2.63441 53.6435L7.33241 48.9455L10.8664 52.4795L6.16841 57.1775C6.02034 57.3274 5.91239 57.5121 5.85456 57.7147C5.79672 57.9173 5.79084 58.1311 5.83748 58.3366C5.88412 58.542 5.98176 58.7324 6.12139 58.8901C6.26103 59.0479 6.43815 59.1679 6.63641 59.2391C8.23175 59.8096 9.94602 59.9647 11.6178 59.6899C13.2897 59.415 14.864 58.7192 16.1928 57.668C17.5215 56.6168 18.5608 55.2448 19.2129 53.681C19.8651 52.1173 20.1085 50.4133 19.9204 48.7295L28.5724 40.0775ZM21.2416 25.1975C21.2418 22.4794 22.0481 19.8224 23.5583 17.5624C25.0686 15.3025 27.2151 13.5411 29.7263 12.5011C32.2376 11.461 35.0009 11.1889 37.6668 11.7193C40.3326 12.2496 42.7814 13.5585 44.7034 15.4805C46.6254 17.4025 47.9343 19.8513 48.4647 22.5172C48.995 25.1831 48.7229 27.9464 47.6829 30.4576C46.6428 32.9689 44.8814 35.1154 42.6215 36.6256C40.3616 38.1359 37.7045 38.9421 34.9864 38.9423C33.4528 38.9441 31.9305 38.681 30.4864 38.1647L33.6364 35.0147C35.3193 35.2031 37.0225 34.9602 38.5856 34.3089C40.1488 33.6575 41.5205 32.6191 42.5717 31.2914C43.6228 29.9637 44.3189 28.3904 44.5943 26.7195C44.8697 25.0486 44.7154 23.3352 44.146 21.7403C44.075 21.5416 43.9547 21.3641 43.7966 21.2244C43.6384 21.0848 43.4474 20.9874 43.2414 20.9415C43.0354 20.8957 42.8212 20.9027 42.6186 20.962C42.4161 21.0213 42.2319 21.131 42.0832 21.2807L37.3864 25.9775L33.8524 22.4423L38.5492 17.7455C38.6983 17.5955 38.8074 17.4104 38.8663 17.2072C38.9252 17.004 38.9321 16.7893 38.8864 16.5827C38.8417 16.3771 38.7449 16.1863 38.6054 16.0288C38.4659 15.8712 38.2883 15.752 38.0896 15.6827C36.4949 15.1134 34.7815 14.9591 33.1108 15.2345C31.44 15.5099 29.8668 16.2058 28.5391 17.2568C27.2115 18.3078 26.173 19.6793 25.5216 21.2423C24.8701 22.8053 24.627 24.5083 24.8152 26.1911L21.862 29.1443C21.4514 27.8694 21.2425 26.5382 21.2428 25.1987L21.2416 25.1975ZM17.362 48.5111C17.5633 49.6233 17.5097 50.7666 17.2053 51.8551C16.9009 52.9436 16.3536 53.9489 15.6047 54.7953C14.8557 55.6418 13.9245 56.3074 12.8812 56.742C11.8379 57.1767 10.7096 57.3691 9.58121 57.3047L13.5184 53.3675C13.7527 53.1321 13.8842 52.8135 13.8842 52.4813C13.8842 52.1492 13.7527 51.8306 13.5184 51.5951L8.21201 46.2923C7.97658 46.0581 7.65795 45.9265 7.32581 45.9265C6.99368 45.9265 6.67505 46.0581 6.43961 46.2923L2.50241 50.2307C2.43802 49.1026 2.63023 47.9745 3.0646 46.9314C3.49896 45.8882 4.16418 44.9571 5.01023 44.2081C5.85628 43.4591 6.86114 42.9116 7.94925 42.6069C9.03736 42.3021 10.1804 42.2481 11.2924 42.4487C11.4911 42.4852 11.6957 42.4726 11.8885 42.4122C12.0813 42.3518 12.2565 42.2453 12.3988 42.1019L26.9992 27.5111C27.1426 27.3688 27.2491 27.1936 27.3095 27.0008C27.3699 26.8081 27.3825 26.6034 27.346 26.4047C27.1448 25.2926 27.1984 24.1492 27.5027 23.0608C27.8071 21.9723 28.3544 20.967 29.1034 20.1205C29.8523 19.2741 30.7835 18.6085 31.8268 18.1739C32.8701 17.7392 33.9984 17.5468 35.1268 17.6111L31.1896 21.5483C31.0736 21.6639 30.9816 21.8013 30.9188 21.9526C30.856 22.1038 30.8237 22.266 30.8237 22.4297C30.8237 22.5935 30.856 22.7557 30.9188 22.9069C30.9816 23.0582 31.0736 23.1955 31.1896 23.3111L36.4924 28.6115C36.7279 28.8458 37.0465 28.9773 37.3786 28.9773C37.7108 28.9773 38.0294 28.8458 38.2648 28.6115L42.202 24.6743C42.2663 25.8027 42.0739 26.931 41.6393 27.9743C41.2046 29.0177 40.5391 29.9488 39.6926 30.6978C38.8461 31.4468 37.8409 31.994 36.7524 32.2984C35.6639 32.6028 34.5206 32.6564 33.4084 32.4551C33.2097 32.4187 33.0051 32.4312 32.8123 32.4916C32.6195 32.5521 32.4444 32.6586 32.302 32.8019L17.7088 47.4083C17.5655 47.5507 17.459 47.7258 17.3985 47.9186C17.3381 48.1114 17.3256 48.316 17.362 48.5147V48.5111Z" fill="#F26327"/>
<path d="M59.1272 20.2546L55.2872 18.9706C54.8928 17.674 54.3748 16.4182 53.7404 15.2206L55.55 11.6014C55.6672 11.3668 55.707 11.1011 55.6639 10.8424C55.6208 10.5837 55.4969 10.3454 55.31 10.1614L50.006 4.8514C49.8213 4.66577 49.583 4.54276 49.3246 4.49971C49.0663 4.45665 48.801 4.49572 48.566 4.6114L44.9432 6.427C43.7456 5.79261 42.4898 5.27463 41.1932 4.8802L39.9092 1.0402C39.8266 0.794888 39.669 0.581768 39.4586 0.431015C39.2482 0.280261 38.9957 0.199512 38.7368 0.2002H31.2368C30.9755 0.201211 30.7211 0.28405 30.5093 0.43708C30.2976 0.59011 30.139 0.805642 30.056 1.0534L28.772 4.8934C27.4751 5.28661 26.219 5.80338 25.0208 6.4366L21.4028 4.627C21.1682 4.50986 20.9025 4.46998 20.6438 4.5131C20.3852 4.55621 20.1468 4.68009 19.9628 4.867L14.6528 10.1674C14.4659 10.3513 14.342 10.5897 14.2989 10.8484C14.2558 11.1071 14.2957 11.3728 14.4128 11.6074L16.2224 15.2266C15.588 16.4242 15.0701 17.68 14.6756 18.9766L10.8356 20.2606C10.5879 20.3436 10.3723 20.5021 10.2193 20.7139C10.0663 20.9257 9.98343 21.1801 9.98242 21.4414V28.9474C9.98343 29.2087 10.0663 29.4631 10.2193 29.6749C10.3723 29.8867 10.5879 30.0452 10.8356 30.1282L15.2984 31.6186C15.4552 31.675 15.6216 31.6995 15.788 31.6907C15.9544 31.682 16.1173 31.6401 16.2673 31.5675C16.4173 31.4949 16.5512 31.3931 16.6613 31.2681C16.7715 31.1431 16.8555 30.9973 16.9085 30.8394C16.9616 30.6814 16.9826 30.5145 16.9702 30.3484C16.9579 30.1822 16.9126 30.0202 16.8368 29.8718C16.7611 29.7234 16.6564 29.5916 16.5291 29.4842C16.4018 29.3768 16.2542 29.2959 16.0952 29.2462L12.4856 28.0462V22.3474L16.0952 21.1474C16.2918 21.082 16.4692 20.969 16.6116 20.8185C16.754 20.668 16.8569 20.4845 16.9112 20.2846C17.3265 18.7463 17.9388 17.2681 18.7328 15.8866C18.8354 15.7079 18.8924 15.5068 18.8989 15.3008C18.9054 15.0949 18.8611 14.8906 18.77 14.7058L17.072 11.3074L21.1028 7.2766L24.506 8.9674C24.6908 9.05848 24.8952 9.10273 25.1011 9.09624C25.307 9.08976 25.5081 9.03273 25.6868 8.9302C27.0686 8.13747 28.5462 7.52489 30.0836 7.1074C30.2829 7.05174 30.4656 6.94834 30.616 6.80616C30.7663 6.66397 30.8797 6.48729 30.9464 6.2914L32.1464 2.6818H37.8464L39.0464 6.2914C39.1118 6.48801 39.2248 6.6654 39.3753 6.80777C39.5259 6.95014 39.7093 7.05308 39.9092 7.1074C41.4464 7.52375 42.924 8.13511 44.306 8.9266C44.4847 9.02913 44.6859 9.08616 44.8918 9.09264C45.0977 9.09913 45.302 9.05488 45.4868 8.9638L48.89 7.267L52.9208 11.3074L51.224 14.7106C51.1306 14.8947 51.0851 15.0994 51.0916 15.3058C51.0981 15.5121 51.1564 15.7135 51.2612 15.8914C52.0527 17.2734 52.6641 18.751 53.0804 20.2882C53.1361 20.4875 53.2395 20.6702 53.3817 20.8206C53.5239 20.9709 53.7005 21.0843 53.8964 21.151L57.506 22.351V28.051L53.8964 29.251C53.6998 29.3164 53.5224 29.4294 53.3801 29.5799C53.2377 29.7304 53.1348 29.9139 53.0804 30.1138C52.6641 31.651 52.0527 33.1286 51.2612 34.5106C51.1587 34.6893 51.1017 34.8904 51.0952 35.0964C51.0887 35.3023 51.1329 35.5066 51.224 35.6914L52.9208 39.0946L48.89 43.1254L45.4928 41.4274C45.308 41.3363 45.1037 41.2921 44.8978 41.2986C44.6919 41.305 44.4907 41.3621 44.312 41.4646C42.93 42.2561 41.4524 42.8675 39.9152 43.2838C39.7172 43.3391 39.5355 43.4412 39.3853 43.5816C39.2351 43.7219 39.1209 43.8964 39.0524 44.0902L37.8524 47.6998H32.1524L30.9524 44.0902C30.9028 43.9312 30.8218 43.7837 30.7144 43.6563C30.607 43.529 30.4752 43.4244 30.3268 43.3486C30.1784 43.2729 30.0164 43.2275 29.8503 43.2152C29.6841 43.2029 29.5172 43.2238 29.3593 43.2769C29.2013 43.3299 29.0556 43.414 28.9305 43.5241C28.8055 43.6342 28.7037 43.7682 28.6311 43.9181C28.5586 44.0681 28.5167 44.231 28.5079 44.3974C28.4991 44.5638 28.5236 44.7302 28.58 44.887L30.0656 49.3474C30.1486 49.5952 30.3071 49.8107 30.5189 49.9637C30.7307 50.1168 30.9851 50.1996 31.2464 50.2006H38.7464C39.0077 50.1996 39.2621 50.1168 39.4739 49.9637C39.6857 49.8107 39.8442 49.5952 39.9272 49.3474L41.2112 45.5074C42.5078 45.113 43.7636 44.595 44.9612 43.9606L48.5804 45.7702C48.815 45.8873 49.0807 45.9272 49.3394 45.8841C49.5981 45.841 49.8365 45.7171 50.0204 45.5302L55.3328 40.2274C55.5197 40.0434 55.6436 39.8051 55.6867 39.5464C55.7298 39.2877 55.69 39.022 55.5728 38.7874L53.7632 35.1682C54.3976 33.9706 54.9156 32.7148 55.31 31.4182L59.15 30.1342C59.3978 30.0512 59.6133 29.8927 59.7663 29.6809C59.9194 29.4691 60.0022 29.2147 60.0032 28.9534V21.4534C59.9981 21.1893 59.9115 20.9332 59.7554 20.7202C59.5992 20.5071 59.3811 20.3475 59.1308 20.263L59.1272 20.2546Z" fill="#2D4572"/>
</g>
</svg>
