<svg width="60" height="60" viewBox="0 0 60 60" fill="none" xmlns="http://www.w3.org/2000/svg">
<g id="Clip path group">
<mask id="mask0_1_3158" style="mask-type:luminance" maskUnits="userSpaceOnUse" x="0" y="0" width="60" height="60">
<g id="clip-path-13">
<path id="Rectangle 2319" d="M60 0H0V60H60V0Z" fill="white"/>
</g>
</mask>
<g mask="url(#mask0_1_3158)">
<g id="Mask Group 14">
<g id="customer-support">
<path id="Path 184" d="M56.3148 26.0892C56.0755 19.2698 53.1982 12.8095 48.2892 8.0698C43.3803 3.33011 36.8231 0.681152 29.9994 0.681152C23.1757 0.681152 16.6185 3.33011 11.7096 8.0698C6.80063 12.8095 3.92332 19.2698 3.684 26.0892C2.58872 26.5746 1.65773 27.3672 1.00385 28.3711C0.349963 29.3749 0.00126218 30.5468 0 31.7448V38.6928C0.00190555 40.3335 0.654508 41.9065 1.81464 43.0666C2.97478 44.2267 4.54772 44.8793 6.1884 44.8812C7.25014 44.8803 8.26812 44.4581 9.01888 43.7073C9.76965 42.9566 10.1918 41.9386 10.1928 40.8768V29.5596C10.1897 28.5691 9.81886 27.6149 9.15212 26.8824C8.48538 26.1498 7.5703 25.6909 6.5844 25.5948C6.94688 19.6299 9.57193 14.0281 13.9238 9.93262C18.2757 5.83715 24.0265 3.55673 30.0024 3.55673C35.9783 3.55673 41.7291 5.83715 46.081 9.93262C50.4329 14.0281 53.0579 19.6299 53.4204 25.5948C52.4355 25.6911 51.5214 26.1494 50.855 26.8809C50.1887 27.6125 49.8174 28.5653 49.8132 29.5548V40.8708C49.816 41.8703 50.1935 42.8324 50.8711 43.5671C51.5487 44.3018 52.4772 44.7557 53.4732 44.8392V47.6988C53.473 48.4667 53.3216 49.227 53.0276 49.9363C52.7336 50.6457 52.3027 51.2901 51.7596 51.8329C51.2164 52.3757 50.5717 52.8062 49.8622 53.0998C49.1527 53.3934 48.3923 53.5444 47.6244 53.544H43.3044C43.014 52.6933 42.4642 51.9549 41.7324 51.4329C41.0005 50.9109 40.1234 50.6315 39.2244 50.634H34.7616C34.1341 50.6321 33.5139 50.7681 32.9448 51.0324C32.1926 51.3812 31.5558 51.9377 31.1094 52.6363C30.6629 53.3349 30.4254 54.1466 30.4248 54.9756C30.4261 56.127 30.884 57.2309 31.6982 58.0451C32.5123 58.8592 33.6162 59.3172 34.7676 59.3184H39.2244C40.1209 59.3121 40.9937 59.0296 41.7238 58.5093C42.4539 57.9889 43.0058 57.2562 43.3044 56.4108H47.6244C49.9337 56.4083 52.1476 55.4899 53.7806 53.8571C55.4136 52.2243 56.3323 50.0105 56.3352 47.7012V44.3328C57.4236 43.845 58.3479 43.0532 58.9972 42.0527C59.6464 41.0522 59.993 39.8855 59.9952 38.6928V31.7448C59.9935 30.5472 59.6446 29.3758 58.9907 28.3725C58.3368 27.3691 57.4061 26.5768 56.3112 26.0916L56.3148 26.0892ZM7.32 29.5596V40.8756C7.31968 41.1763 7.20011 41.4645 6.98751 41.6771C6.77491 41.8897 6.48666 42.0093 6.186 42.0096C5.30568 42.0096 4.46136 41.6602 3.83855 41.038C3.21573 40.4159 2.86535 39.572 2.8644 38.6916V31.7436C2.86535 30.8639 3.21523 30.0205 3.83727 29.3985C4.45931 28.7765 5.3027 28.4266 6.1824 28.4256C6.33158 28.4253 6.47935 28.4544 6.61728 28.5112C6.75521 28.5681 6.88058 28.6515 6.98623 28.7569C7.09189 28.8622 7.17574 28.9873 7.23301 29.125C7.29028 29.2628 7.31984 29.4105 7.32 29.5596ZM40.6644 55.2864C40.5933 55.6159 40.4117 55.9111 40.1498 56.1233C39.8879 56.3354 39.5614 56.4517 39.2244 56.4528H34.7616C34.4254 56.4532 34.0992 56.3385 33.8373 56.1276C33.5754 55.9168 33.3936 55.6226 33.3222 55.2941C33.2508 54.9655 33.2941 54.6225 33.4449 54.322C33.5956 54.0214 33.8448 53.7816 34.1508 53.6424C34.342 53.5534 34.5507 53.5079 34.7616 53.5092H39.2244C39.4432 53.5104 39.6591 53.5601 39.8563 53.6548C40.0536 53.7495 40.2274 53.8869 40.3652 54.0569C40.5029 54.2269 40.6012 54.4254 40.653 54.638C40.7047 54.8507 40.7086 55.0721 40.6644 55.2864ZM57.1296 38.6916C57.1286 39.5713 56.7788 40.4147 56.1567 41.0368C55.5347 41.6588 54.6913 42.0087 53.8116 42.0096C53.5109 42.0093 53.2227 41.8897 53.0101 41.6771C52.7975 41.4645 52.6779 41.1763 52.6776 40.8756V29.5596C52.6779 29.259 52.7975 28.9707 53.0101 28.7581C53.2227 28.5455 53.5109 28.426 53.8116 28.4256C54.6913 28.4266 55.5347 28.7765 56.1567 29.3985C56.7788 30.0205 57.1286 30.8639 57.1296 31.7436V38.6916Z" fill="#2D4572"/>
<path id="Path 185" d="M39.2934 39.1833C40.9054 39.1814 42.4509 38.5402 43.5908 37.4003C44.7307 36.2605 45.3719 34.715 45.3738 33.1029V20.7117C45.3716 19.0998 44.7303 17.5545 43.5904 16.4147C42.4506 15.2749 40.9053 14.6336 39.2934 14.6313H20.7078C19.0953 14.6326 17.5493 15.2736 16.4089 16.4135C15.2685 17.5535 14.6269 19.0993 14.625 20.7117V33.1029C14.6269 34.715 15.2681 36.2605 16.408 37.4003C17.5479 38.5402 19.0934 39.1814 20.7054 39.1833H20.8194V42.3945C20.8183 42.7864 20.8945 43.1746 21.0435 43.537C21.1926 43.8994 21.4117 44.2288 21.6882 44.5065C21.9647 44.7841 22.2933 45.0045 22.6551 45.155C23.0168 45.3055 23.4048 45.3833 23.7966 45.3837C24.1884 45.3846 24.5764 45.3065 24.9374 45.1541C25.2984 45.0017 25.625 44.7783 25.8978 44.497L31.239 39.1845L39.2934 39.1833ZM29.6394 36.7305L23.859 42.4798C23.854 42.4878 23.8474 42.4948 23.8397 42.5003C23.832 42.5058 23.8232 42.5098 23.8139 42.5119C23.8047 42.514 23.7951 42.5143 23.7857 42.5127C23.7764 42.5111 23.7674 42.5076 23.7594 42.5025C23.7372 42.4956 23.7182 42.4808 23.7061 42.461C23.6939 42.4411 23.6894 42.4175 23.6934 42.3945V37.7481C23.6934 37.3662 23.5417 37 23.2716 36.7299C23.0016 36.4599 22.6353 36.3081 22.2534 36.3081H20.709C19.8576 36.3072 19.0414 35.9686 18.4394 35.3666C17.8374 34.7645 17.4988 33.9483 17.4978 33.0969V20.7117C17.4984 19.8603 17.837 19.0439 18.439 18.4418C19.0411 17.8397 19.8575 17.5012 20.709 17.5005H39.2934C40.1446 17.5021 40.9604 17.841 41.5623 18.4428C42.1642 19.0447 42.503 19.8606 42.5046 20.7117V33.1029C42.5036 33.9543 42.165 34.7705 41.563 35.3726C40.961 35.9746 40.1448 36.3132 39.2934 36.3141H30.6534C30.274 36.3145 29.91 36.4646 29.6406 36.7317L29.6394 36.7305Z" fill="#F26327"/>
<path id="Path 186" d="M23.0207 25.0186C22.6021 25.019 22.1931 25.1436 21.8453 25.3765C21.4975 25.6093 21.2265 25.9401 21.0667 26.327C20.9068 26.7138 20.8653 27.1393 20.9472 27.5498C21.0292 27.9603 21.231 28.3372 21.5271 28.633C21.8232 28.9288 22.2004 29.1302 22.611 29.2117C23.0215 29.2931 23.447 29.2511 23.8337 29.0908C24.2203 28.9305 24.5508 28.6592 24.7833 28.3111C25.0158 27.9631 25.1399 27.5539 25.1399 27.1354C25.1389 26.5738 24.9152 26.0356 24.518 25.6388C24.1207 25.2419 23.5822 25.0189 23.0207 25.0186Z" fill="#F26327"/>
<path id="Path 187" d="M29.9953 25.0186C29.5767 25.019 29.1677 25.1436 28.8199 25.3765C28.4721 25.6093 28.2012 25.9401 28.0413 26.327C27.8815 26.7138 27.8399 27.1393 27.9218 27.5498C28.0038 27.9603 28.2056 28.3372 28.5017 28.633C28.7978 28.9288 29.175 29.1302 29.5856 29.2117C29.9961 29.2931 30.4216 29.2511 30.8083 29.0908C31.1949 28.9305 31.5254 28.6592 31.7579 28.3111C31.9904 27.9631 32.1145 27.5539 32.1145 27.1354C32.1135 26.5738 31.8899 26.0356 31.4926 25.6388C31.0953 25.2419 30.5568 25.0189 29.9953 25.0186Z" fill="#F26327"/>
<path id="Path 188" d="M36.9699 25.0186C36.5513 25.019 36.1423 25.1436 35.7945 25.3765C35.4467 25.6093 35.1758 25.9401 35.0159 26.327C34.8561 26.7138 34.8145 27.1393 34.8964 27.5498C34.9784 27.9603 35.1802 28.3372 35.4763 28.633C35.7724 28.9288 36.1496 29.1302 36.5602 29.2117C36.9707 29.2931 37.3962 29.2511 37.7829 29.0908C38.1695 28.9305 38.5 28.6592 38.7325 28.3111C38.965 27.9631 39.0891 27.5539 39.0891 27.1354C39.0881 26.5738 38.8645 26.0356 38.4672 25.6388C38.0699 25.2419 37.5314 25.0189 36.9699 25.0186Z" fill="#F26327"/>
</g>
</g>
</g>
</g>
</svg>
