<svg width="62" height="62" viewBox="0 0 62 62" fill="none" xmlns="http://www.w3.org/2000/svg">
<g id="surface1">
<path id="Path 237" d="M33.9664 24.7034C33.9664 24.8227 33.9899 24.9408 34.0355 25.051C34.0812 25.1613 34.1481 25.2614 34.2325 25.3458C34.3168 25.4301 34.417 25.4971 34.5272 25.5427C34.6374 25.5884 34.7555 25.6119 34.8748 25.6119H36.3887V36.3895H25.611V25.611H30.9998C31.2358 25.6037 31.4597 25.5049 31.6241 25.3354C31.7884 25.1659 31.8803 24.9391 31.8803 24.703C31.8803 24.4669 31.7884 24.24 31.6241 24.0705C31.4597 23.901 31.2358 23.8022 30.9998 23.7949H25.1873C24.8182 23.7954 24.4643 23.9422 24.2033 24.2033C23.9422 24.4643 23.7954 24.8182 23.7949 25.1873V36.8123C23.7954 37.1815 23.9422 37.5354 24.2033 37.7964C24.4643 38.0575 24.8182 38.2043 25.1873 38.2048H36.8123C37.1815 38.2043 37.5354 38.0575 37.7964 37.7964C38.0575 37.5354 38.2043 37.1815 38.2048 36.8123V25.1873C38.2043 24.8182 38.0575 24.4643 37.7964 24.2033C37.5354 23.9422 37.1815 23.7954 36.8123 23.7949H34.8748C34.6339 23.7949 34.4028 23.8906 34.2325 24.061C34.0621 24.2314 33.9664 24.4624 33.9664 24.7034Z" fill="#F26327"/>
<path id="Path 238" d="M5.02523 3.63281C4.65608 3.63327 4.30218 3.78012 4.04115 4.04115C3.78012 4.30218 3.63327 4.65608 3.63281 5.02523V11.3225C3.63327 11.6917 3.78012 12.0456 4.04115 12.3066C4.30218 12.5676 4.65608 12.7145 5.02523 12.715H11.3225C11.6917 12.7145 12.0456 12.5676 12.3066 12.3066C12.5676 12.0456 12.7145 11.6917 12.715 11.3225V5.02523C12.7145 4.65608 12.5676 4.30218 12.3066 4.04115C12.0456 3.78012 11.6917 3.63327 11.3225 3.63281H5.02523ZM10.898 10.898H5.4489V5.4489H10.898V10.898Z" fill="white"/>
<path id="Path 239" d="M11.3225 49.2852H5.02523C4.65608 49.2856 4.30218 49.4324 4.04115 49.6935C3.78012 49.9545 3.63327 50.3084 3.63281 50.6776V56.974C3.63327 57.3432 3.78012 57.6971 4.04115 57.9581C4.30218 58.2191 4.65608 58.366 5.02523 58.3664H11.3225C11.6917 58.366 12.0456 58.2191 12.3066 57.9581C12.5676 57.6971 12.7145 57.3432 12.715 56.974V50.6776C12.7145 50.3084 12.5676 49.9545 12.3066 49.6935C12.0456 49.4324 11.6917 49.2856 11.3225 49.2852ZM10.8989 56.5504H5.4489V51.1012H10.898L10.8989 56.5504Z" fill="white"/>
<path id="Path 240" d="M48.013 16.3473H59.638C60.2641 16.3469 60.8645 16.098 61.3074 15.6553C61.7502 15.2126 61.9993 14.6123 62 13.9862V2.36117C61.9993 1.73501 61.7502 1.1347 61.3074 0.692021C60.8645 0.24934 60.2641 0.000455845 59.638 0L48.013 0C47.387 0.000683791 46.7868 0.249668 46.3441 0.692325C45.9015 1.13498 45.6525 1.73516 45.6518 2.36117V7.2695H34.7536C34.5128 7.26858 34.2815 7.3633 34.1105 7.53284C33.9395 7.70238 33.8428 7.93287 33.8417 8.17367V20.1621H28.8808V16.6194C29.4868 16.4052 29.9975 15.9837 30.3228 15.4293C30.648 14.875 30.7668 14.2235 30.6581 13.59C30.5494 12.9565 30.2203 12.3819 29.7289 11.9676C29.2375 11.5533 28.6155 11.3261 27.9728 11.3261C27.33 11.3261 26.708 11.5533 26.2166 11.9676C25.7252 12.3819 25.3961 12.9565 25.2874 13.59C25.1788 14.2235 25.2975 14.875 25.6228 15.4293C25.948 15.9837 26.4587 16.4052 27.0647 16.6194V20.1664H23.0063C22.2531 20.168 21.5313 20.4679 20.9987 21.0004C20.4661 21.533 20.1662 22.2549 20.1646 23.008V28.2763H9.08214V16.3473H13.9905C14.6165 16.3466 15.2167 16.0977 15.6593 15.655C16.102 15.2124 16.351 14.6122 16.3516 13.9862V11.625C16.3554 11.5034 16.3347 11.3823 16.2907 11.2688C16.2468 11.1554 16.1805 11.0519 16.0958 10.9646C16.0111 10.8773 15.9097 10.8078 15.7977 10.7604C15.6857 10.713 15.5653 10.6886 15.4436 10.6886C15.3219 10.6886 15.2015 10.713 15.0895 10.7604C14.9775 10.8078 14.8761 10.8773 14.7914 10.9646C14.7067 11.0519 14.6404 11.1554 14.5965 11.2688C14.5525 11.3823 14.5318 11.5034 14.5356 11.625V13.9862C14.5353 14.1307 14.4778 14.2692 14.3757 14.3713C14.2735 14.4735 14.135 14.531 13.9905 14.5312H2.36117C2.21667 14.531 2.07816 14.4735 1.97599 14.3713C1.87381 14.2692 1.81631 14.1307 1.81608 13.9862V2.36117C1.81631 2.21667 1.87381 2.07816 1.97599 1.97599C2.07816 1.87381 2.21667 1.81631 2.36117 1.81608H13.9862C14.1307 1.81631 14.2692 1.87381 14.3713 1.97599C14.4735 2.07816 14.531 2.21667 14.5312 2.36117V7.75C14.5385 7.98599 14.6374 8.20988 14.8069 8.37423C14.9764 8.53859 15.2032 8.63051 15.4393 8.63051C15.6754 8.63051 15.9022 8.53859 16.0717 8.37423C16.2412 8.20988 16.3401 7.98599 16.3473 7.75V2.36117C16.3466 1.73516 16.0977 1.13498 15.655 0.692325C15.2124 0.249668 14.6122 0.000683791 13.9862 0L2.36117 0C1.73516 0.000683791 1.13498 0.249668 0.692325 0.692325C0.249668 1.13498 0.000683791 1.73516 0 2.36117L0 13.9862C0.000683791 14.6122 0.249668 15.2124 0.692325 15.655C1.13498 16.0977 1.73516 16.3466 2.36117 16.3473H7.2695V29.1831C7.2695 29.424 7.36521 29.6551 7.53559 29.8254C7.70596 29.9958 7.93703 30.0915 8.17797 30.0915H20.1621V33.9665H18.916C18.7018 33.3605 18.2803 32.8498 17.7259 32.5246C17.1716 32.1993 16.5201 32.0806 15.8866 32.1892C15.2531 32.2979 14.6785 32.627 14.2642 33.1184C13.8499 33.6098 13.6227 34.2318 13.6227 34.8746C13.6227 35.5173 13.8499 36.1393 14.2642 36.6307C14.6785 37.1221 15.2531 37.4512 15.8866 37.5599C16.5201 37.6686 17.1716 37.5498 17.7259 37.2246C18.2803 36.8993 18.7018 36.3886 18.916 35.7826H20.1621V38.9928C20.1636 39.746 20.4635 40.4679 20.9961 41.0004C21.5287 41.533 22.2506 41.8329 23.0037 41.8345H27.0613V52.6251H16.3473V48.013C16.3466 47.387 16.0977 46.7868 15.655 46.3441C15.2124 45.9015 14.6122 45.6525 13.9862 45.6518H2.36117C1.73516 45.6525 1.13498 45.9015 0.692325 46.3441C0.249668 46.7868 0.000683791 47.387 0 48.013L0 59.638C0.000455845 60.2641 0.24934 60.8645 0.692021 61.3074C1.1347 61.7502 1.73501 61.9993 2.36117 62H13.9862C14.6122 61.9993 15.2124 61.7503 15.655 61.3077C16.0977 60.865 16.3466 60.2648 16.3473 59.6388V54.4412H27.9723C28.2133 54.4412 28.4443 54.3455 28.6147 54.1751C28.7851 54.0047 28.8808 53.7736 28.8808 53.5327V41.8379H33.8417V45.8688C33.2357 46.083 32.7249 46.5046 32.3997 47.0589C32.0745 47.6133 31.9557 48.2648 32.0644 48.8982C32.173 49.5317 32.5022 50.1064 32.9936 50.5207C33.485 50.9349 34.107 51.1621 34.7497 51.1621C35.3924 51.1621 36.0145 50.9349 36.5059 50.5207C36.9973 50.1064 37.3264 49.5317 37.435 48.8982C37.5437 48.2648 37.4249 47.6133 37.0997 47.0589C36.7745 46.5046 36.2637 46.083 35.6577 45.8688V41.8379H38.9885C39.7417 41.8363 40.4636 41.5364 40.9961 41.0039C41.5287 40.4713 41.8286 39.7494 41.8302 38.9963V32.8083H52.9187V45.6518H48.0104C47.3844 45.6525 46.7842 45.9015 46.3415 46.3441C45.8989 46.7868 45.6499 47.387 45.6492 48.013V50.375C45.6565 50.611 45.7553 50.8349 45.9248 50.9992C46.0943 51.1636 46.3212 51.2555 46.5573 51.2555C46.7934 51.2555 47.0202 51.1636 47.1897 50.9992C47.3592 50.8349 47.458 50.611 47.4653 50.375V48.013C47.4655 47.8685 47.523 47.73 47.6252 47.6278C47.7274 47.5256 47.8659 47.4681 48.0104 47.4679H59.6354C59.7799 47.4681 59.9184 47.5256 60.0206 47.6278C60.1227 47.73 60.1802 47.8685 60.1805 48.013V59.638C60.1802 59.7825 60.1227 59.921 60.0206 60.0232C59.9184 60.1253 59.7799 60.1828 59.6354 60.1831H48.0104C47.8659 60.1828 47.7274 60.1253 47.6252 60.0232C47.523 59.921 47.4655 59.7825 47.4653 59.638V54.2345C47.469 54.1129 47.4483 53.9918 47.4044 53.8783C47.3604 53.7649 47.2942 53.6614 47.2095 53.5741C47.1248 53.4868 47.0234 53.4173 46.9114 53.3699C46.7993 53.3225 46.6789 53.2981 46.5573 53.2981C46.4356 53.2981 46.3152 53.3225 46.2032 53.3699C46.0911 53.4173 45.9898 53.4868 45.9051 53.5741C45.8204 53.6614 45.7541 53.7649 45.7101 53.8783C45.6662 53.9918 45.6455 54.1129 45.6492 54.2345V59.638C45.6497 60.2646 45.8989 60.8654 46.3422 61.3083C46.7854 61.7512 47.3864 62 48.013 62H59.638C60.2643 61.9995 60.8648 61.7505 61.3077 61.3077C61.7505 60.8648 61.9995 60.2643 62 59.638V48.013C61.9993 47.387 61.7503 46.7868 61.3077 46.3441C60.865 45.9015 60.2648 45.6525 59.6388 45.6518H54.7357V31.9016C54.7357 31.6606 54.64 31.4296 54.4696 31.2592C54.2992 31.0888 54.0681 30.9931 53.8272 30.9931H41.8379V27.9121H46.1659C46.3801 28.518 46.8016 29.0288 47.356 29.354C47.9104 29.6792 48.5619 29.798 49.1953 29.6893C49.8288 29.5807 50.4035 29.2516 50.8177 28.7602C51.232 28.2688 51.4592 27.6467 51.4592 27.004C51.4592 26.3613 51.232 25.7393 50.8177 25.2479C50.4035 24.7565 49.8288 24.4274 49.1953 24.3187C48.5619 24.21 47.9104 24.3288 47.356 24.654C46.8016 24.9793 46.3801 25.49 46.1659 26.096H41.8379V23.0063C41.8363 22.2531 41.5364 21.5313 41.0039 20.9987C40.4713 20.4661 39.7494 20.1662 38.9963 20.1646H35.6621V9.08214H45.6509V13.9905C45.6528 14.6159 45.9024 15.2151 46.3451 15.6568C46.7878 16.0986 47.3876 16.3469 48.013 16.3473ZM27.9723 13.1388C28.152 13.1388 28.3277 13.1921 28.4771 13.2919C28.6264 13.3918 28.7429 13.5336 28.8117 13.6996C28.8804 13.8657 28.8984 14.0483 28.8633 14.2245C28.8283 14.4008 28.7418 14.5626 28.6147 14.6897C28.4877 14.8167 28.3258 14.9033 28.1496 14.9383C27.9733 14.9734 27.7907 14.9554 27.6247 14.8866C27.4587 14.8179 27.3168 14.7014 27.217 14.552C27.1171 14.4026 27.0639 14.227 27.0639 14.0473C27.0641 13.8064 27.1599 13.5755 27.3302 13.4052C27.5005 13.2348 27.7315 13.1391 27.9723 13.1388ZM16.3473 35.7861C16.1678 35.7861 15.9922 35.7328 15.8429 35.6331C15.6935 35.5334 15.5771 35.3917 15.5083 35.2258C15.4394 35.06 15.4213 34.8774 15.4561 34.7013C15.491 34.5251 15.5772 34.3633 15.704 34.2361C15.8308 34.109 15.9925 34.0222 16.1685 33.9869C16.3446 33.9515 16.5272 33.9692 16.6932 34.0375C16.8592 34.1059 17.0013 34.2219 17.1014 34.371C17.2016 34.52 17.2553 34.6954 17.2558 34.875C17.2554 35.1157 17.1595 35.3464 16.9892 35.5166C16.8189 35.6867 16.5881 35.7824 16.3473 35.7826V35.7861ZM14.5312 59.6388C14.531 59.7833 14.4735 59.9218 14.3713 60.024C14.2692 60.1262 14.1307 60.1837 13.9862 60.1839H2.36117C2.21667 60.1837 2.07816 60.1262 1.97599 60.024C1.87381 59.9218 1.81631 59.7833 1.81608 59.6388V48.0138C1.81631 47.8693 1.87381 47.7308 1.97599 47.6287C2.07816 47.5265 2.21667 47.469 2.36117 47.4688H13.9862C14.1307 47.469 14.2692 47.5265 14.3713 47.6287C14.4735 47.7308 14.531 47.8693 14.5312 48.0138V59.6388ZM34.7536 49.3417C34.5739 49.3417 34.3983 49.2884 34.2489 49.1886C34.0995 49.0887 33.983 48.9469 33.9143 48.7809C33.8455 48.6148 33.8275 48.4322 33.8626 48.256C33.8976 48.0797 33.9841 47.9179 34.1112 47.7908C34.2382 47.6638 34.4001 47.5772 34.5763 47.5422C34.7526 47.5071 34.9352 47.5251 35.1012 47.5939C35.2672 47.6626 35.4091 47.7791 35.509 47.9285C35.6088 48.0779 35.6621 48.2535 35.6621 48.4332C35.6618 48.6741 35.566 48.905 35.3957 49.0753C35.2254 49.2457 34.9945 49.3414 34.7536 49.3417ZM48.7337 26.0917C48.9134 26.0917 49.089 26.1449 49.2384 26.2448C49.3878 26.3446 49.5043 26.4865 49.573 26.6525C49.6418 26.8185 49.6598 27.0011 49.6247 27.1774C49.5897 27.3536 49.5032 27.5155 49.3761 27.6425C49.2491 27.7696 49.0872 27.8561 48.911 27.8912C48.7347 27.9262 48.5521 27.9082 48.3861 27.8395C48.2201 27.7707 48.0782 27.6543 47.9784 27.5049C47.8785 27.3555 47.8253 27.1798 47.8253 27.0001C47.8255 26.7593 47.9213 26.5283 48.0916 26.358C48.2619 26.1877 48.4929 26.0919 48.7337 26.0917ZM40.021 23.0063V38.9928C40.0196 39.2651 39.9109 39.5258 39.7184 39.7184C39.5258 39.9109 39.2651 40.0196 38.9928 40.021H23.0063C22.734 40.0196 22.4733 39.9109 22.2808 39.7184C22.0883 39.5258 21.9795 39.2651 21.9781 38.9928V23.0063C21.9795 22.734 22.0883 22.4733 22.2808 22.2808C22.4733 22.0883 22.734 21.9795 23.0063 21.9781H38.9928C39.2651 21.9795 39.5258 22.0883 39.7184 22.2808C39.9109 22.4733 40.0196 22.734 40.021 23.0063ZM48.013 1.81608H59.638C59.7825 1.81631 59.921 1.87381 60.0232 1.97599C60.1253 2.07816 60.1828 2.21667 60.1831 2.36117V13.9862C60.1828 14.1307 60.1253 14.2692 60.0232 14.3713C59.921 14.4735 59.7825 14.531 59.638 14.5312H48.013C47.8685 14.531 47.73 14.4735 47.6278 14.3713C47.5256 14.2692 47.4681 14.1307 47.4679 13.9862V8.19778C47.4679 8.19003 47.4679 8.18228 47.4679 8.17453C47.4679 8.16678 47.4679 8.15903 47.4679 8.15128V2.36117C47.4681 2.21667 47.5256 2.07816 47.6278 1.97599C47.73 1.87381 47.8685 1.81631 48.013 1.81608Z" fill="white"/>
<path id="Path 241" d="M50.6776 12.715H56.974C57.3432 12.7145 57.6971 12.5676 57.9581 12.3066C58.2191 12.0456 58.366 11.6917 58.3664 11.3225V5.02523C58.366 4.65623 58.2193 4.30246 57.9584 4.04145C57.6976 3.78044 57.3439 3.6335 56.9749 3.63281H50.6784C50.3091 3.63304 49.955 3.77979 49.6938 4.04084C49.4326 4.3019 49.2856 4.65593 49.2852 5.02523V11.3225C49.2856 11.6917 49.4324 12.0456 49.6935 12.3066C49.9545 12.5676 50.3084 12.7145 50.6776 12.715ZM51.1012 5.44976H56.5504V10.8989H51.1012V5.44976Z" fill="white"/>
<path id="Path 242" d="M56.9749 58.3673C57.344 58.3668 57.6979 58.22 57.959 57.959C58.22 57.6979 58.3668 57.344 58.3673 56.9749V50.6784C58.3671 50.3091 58.2203 49.955 57.9593 49.6938C57.6982 49.4326 57.3442 49.2856 56.9749 49.2852H50.6784C50.3091 49.2854 49.955 49.4321 49.6938 49.6932C49.4326 49.9542 49.2856 50.3083 49.2852 50.6776V56.974C49.2856 57.3432 49.4324 57.6971 49.6935 57.9581C49.9545 58.2191 50.3084 58.366 50.6776 58.3664L56.9749 58.3673ZM51.1021 51.1021H56.5512V56.5512H51.1021V51.1021Z" fill="white"/>
</g>
</svg>
